<svg xmlns="http://www.w3.org/2000/svg" width="240" height="150" fill="none"><g clip-path="url(#a)"><path fill="#000" d="M221.053 0H18.947A19.049 19.049 0 0 0 5.55 5.492 18.651 18.651 0 0 0 0 18.75v112.5a18.65 18.65 0 0 0 5.55 13.258A19.046 19.046 0 0 0 18.947 150h202.106c5.025 0 9.844-1.975 13.397-5.492A18.648 18.648 0 0 0 240 131.25V18.75a18.65 18.65 0 0 0-5.55-13.258A19.047 19.047 0 0 0 221.053 0Z" opacity=".07"/><path fill="#fff" d="M221.333 6a12.73 12.73 0 0 1 8.957 3.674 12.487 12.487 0 0 1 3.71 8.872v112.909c0 3.327-1.335 6.518-3.71 8.871a12.73 12.73 0 0 1-8.957 3.674H18.667a12.73 12.73 0 0 1-8.957-3.674A12.486 12.486 0 0 1 6 131.455V18.545c0-3.327 1.335-6.518 3.71-8.87A12.729 12.729 0 0 1 18.667 6h202.666Z"/><g fill-rule="evenodd" clip-path="url(#b)" clip-rule="evenodd"><path fill="#072654" d="M71.93 71.355c-.308 1.057-.907 1.833-1.795 2.328-.889.495-2.136.744-3.745.744h-5.11l1.794-6.144h5.11c1.608 0 2.711.248 3.31.743.6.496.745 1.272.437 2.329Zm5.293-.133c.65-2.223.38-3.93-.808-5.118-1.188-1.19-3.27-1.784-6.245-1.784H58.76l-6.866 23.515h5.542l2.769-9.479h3.635c.815 0 1.456.121 1.926.364.47.242.745.672.83 1.287l.989 7.828h5.939l-.964-7.299c-.196-1.63-1.009-2.587-2.437-2.873 1.82-.484 3.346-1.288 4.574-2.411 1.227-1.123 2.07-2.466 2.525-4.03Zm13.471 8.192c-.463 1.585-1.176 2.797-2.14 3.633-.964.837-2.118 1.255-3.461 1.255-1.37 0-2.298-.413-2.788-1.238-.492-.826-.508-2.02-.051-3.584.456-1.563 1.183-2.785 2.185-3.666 1-.88 2.173-1.32 3.517-1.32 1.343 0 2.252.424 2.724 1.271.471.847.477 2.064.014 3.65Zm2.43-8.322-.694 2.378c-.3-.86-.881-1.541-1.74-2.048-.861-.506-1.927-.76-3.199-.76-1.56 0-3.059.37-4.498 1.107-1.438.738-2.696 1.778-3.772 3.12a13.164 13.164 0 0 0-2.366 4.591c-.502 1.718-.602 3.232-.3 4.541.3 1.31.954 2.318 1.96 3.022 1.006.706 2.301 1.057 3.885 1.057a9.256 9.256 0 0 0 3.631-.726 8.432 8.432 0 0 0 2.928-2.015l-.724 2.477h5.362l4.889-16.744h-5.362Zm24.643 0h-15.584l-1.089 3.732h9.069l-11.99 9.511-1.024 3.501h16.087l1.091-3.731h-9.717l12.173-9.645.984-3.368Zm13.719 8.289c-.482 1.651-1.197 2.885-2.142 3.7-.945.814-2.09 1.22-3.433 1.22-2.808 0-3.732-1.638-2.774-4.92.476-1.63 1.194-2.856 2.154-3.682.961-.826 2.125-1.239 3.493-1.239 1.343 0 2.249.413 2.716 1.24.466.825.463 2.052-.014 3.681Zm3.137-7.662c-1.234-.704-2.81-1.057-4.73-1.057-1.943 0-3.743.353-5.401 1.057a11.642 11.642 0 0 0-4.234 3.038c-1.165 1.322-2.006 2.863-2.52 4.624-.515 1.762-.575 3.303-.18 4.624.394 1.321 1.213 2.334 2.46 3.038 1.246.706 2.84 1.057 4.784 1.057 1.92 0 3.702-.351 5.348-1.057a11.695 11.695 0 0 0 4.215-3.038c1.164-1.321 2.005-2.862 2.519-4.624.515-1.761.575-3.302.181-4.624-.395-1.32-1.209-2.333-2.442-3.038Zm56.084 7.695c-.463 1.585-1.177 2.797-2.14 3.633-.964.837-2.12 1.255-3.463 1.255-1.366 0-2.296-.413-2.786-1.238-.492-.826-.509-2.02-.051-3.584.456-1.563 1.183-2.785 2.185-3.666 1.001-.88 2.173-1.32 3.516-1.32s2.253.424 2.725 1.271c.471.847.477 2.064.014 3.65Zm2.43-8.322-.694 2.378c-.301-.86-.881-1.541-1.741-2.048-.86-.506-1.927-.76-3.198-.76-1.559 0-3.059.37-4.498 1.107-1.438.738-2.696 1.778-3.772 3.12a13.172 13.172 0 0 0-2.367 4.591c-.501 1.718-.6 3.232-.3 4.541.302 1.31.954 2.318 1.962 3.022 1.005.706 2.3 1.057 3.884 1.057a9.254 9.254 0 0 0 3.631-.726 8.43 8.43 0 0 0 2.927-2.015l-.723 2.477h5.361l4.89-16.744h-5.362Zm-39.396 4.492 1.367-4.558c-.464-.22-1.08-.33-1.847-.33-1.224 0-2.403.28-3.539.842a7.608 7.608 0 0 0-2.507 2.006l.711-2.455-1.553.003h-3.808l-4.927 16.744h5.437l2.555-8.751c.372-1.277 1.04-2.274 2.006-2.99.963-.715 2.166-1.073 3.606-1.073.888 0 1.72.187 2.499.561Zm15.132 3.896c-.457 1.564-1.166 2.758-2.126 3.583-.962.826-2.113 1.238-3.456 1.238-1.344 0-2.26-.418-2.747-1.255-.488-.836-.5-2.047-.037-3.632.463-1.586 1.183-2.802 2.163-3.65.979-.847 2.141-1.271 3.485-1.271 1.319 0 2.215.44 2.69 1.32.474.882.484 2.104.028 3.667Zm3.799-7.712c-1.009-.737-2.293-1.106-3.852-1.106-1.368 0-2.67.286-3.903.858-1.236.574-2.238 1.354-3.006 2.345l.017-.11.913-2.666h-1.051v.002h-4.255l-1.351 4.63-.045.159-5.574 19.09h5.436l2.806-9.61c.275.857.848 1.53 1.714 2.013.867.484 1.935.727 3.208.727 1.583 0 3.089-.352 4.519-1.057 1.429-.704 2.672-1.712 3.725-3.022 1.054-1.31 1.832-2.824 2.334-4.541.501-1.718.605-3.248.315-4.59-.291-1.344-.942-2.384-1.95-3.122Zm48.333-.672.004-.004h-3.293c-.105 0-.198.002-.294.004h-1.708l-.874 1.117c-.07.085-.14.17-.216.268l-.095.129-6.944 8.874-1.439-10.392h-5.688l2.88 15.792-6.36 8.086h5.666l1.542-2.004c.045-.06.084-.108.133-.172l1.798-2.34.052-.067 8.049-10.47L221 71.102l.009-.007h-.004Z"/><path fill="#3395FF" d="M37.927 67.015 36.3 72.509l9.31-5.525-6.088 20.846 6.182.005 8.995-30.79-16.772 9.97Z"/><path fill="#072654" d="m27.906 79.073-2.56 8.763H38.02l5.185-17.828-15.299 9.065Z"/></g></g><defs><clipPath id="a"><path fill="#fff" d="M0 0h240v150H0z"/></clipPath><clipPath id="b"><path fill="#fff" d="M25.263 57h195.789v38H25.263z"/></clipPath></defs></svg>