<svg xmlns="http://www.w3.org/2000/svg" width="240" height="150" fill="none"><g clip-path="url(#a)"><path fill="#000" d="M221.053 0H18.947C8.211 0 0 8.125 0 18.75v112.5C0 141.875 8.842 150 18.947 150h202.106c10.736 0 18.947-8.125 18.947-18.75V18.75C240 8.125 231.158 0 221.053 0Z" opacity=".07"/><path fill="#fff" d="M221.333 6C228.3 6 234 11.646 234 18.546v112.909c0 6.9-5.7 12.545-12.667 12.545H18.667C11.7 144 6 138.355 6 131.455V18.545C6 11.646 11.7 6 18.667 6h202.666Z"/><path fill="#142688" d="M178.737 63.789h-1.895c-2.526 6.315-4.421 9.473-6.316 18.947h12c-1.895-9.474-1.895-13.895-3.789-18.947Zm18.316 37.263h-10.737c-.632 0-.632 0-1.263-.632l-1.264-5.684-.631-1.263H168c-.632 0-1.263 0-1.263 1.263l-1.895 5.684c0 .632-.632.632-.632.632h-13.263l1.263-3.158 18.316-42.948c0-3.157 1.895-4.42 5.053-4.42h9.474c.631 0 1.263 0 1.263 1.262l8.842 41.053c.631 2.527 1.263 4.421 1.263 6.948.632.631.632.631.632 1.263Zm-84.632-1.895 2.526-11.368c.632 0 1.263.631 1.263.631 4.421 1.895 8.843 3.158 13.264 2.526 1.263 0 3.158-.631 4.421-1.263 3.158-1.263 3.158-4.42.631-6.947-1.263-1.263-3.158-1.895-5.052-3.158-2.527-1.263-5.053-2.526-6.948-4.421-7.579-6.316-5.052-15.158-.631-19.579 3.789-2.526 5.684-5.053 10.736-5.053 7.579 0 15.79 0 19.579 1.264h.632c-.632 3.789-1.263 6.947-2.526 10.736C147.158 61.262 144 60 140.842 60c-1.895 0-3.789 0-5.684.632-1.263 0-1.895.631-2.527 1.263-1.263 1.263-1.263 3.158 0 4.42l3.158 2.527c2.527 1.263 5.053 2.527 6.948 3.79 3.158 1.894 6.316 5.052 6.947 8.842 1.263 5.684-.631 10.737-5.684 14.526-3.158 2.526-4.421 3.79-8.842 3.79-8.842 0-15.79.631-21.474-1.264-.631 1.264-.631 1.263-1.263.632Zm-22.105 1.895c.631-4.421.631-4.421 1.263-6.316 3.158-13.895 6.316-28.421 8.842-42.316.632-1.263.632-1.895 1.895-1.895h11.368c-1.263 7.58-2.526 13.264-4.421 20.21-1.895 9.475-3.789 18.948-6.316 28.422 0 1.263-.631 1.263-1.894 1.263M31.579 51.788c0-.631 1.263-1.263 1.895-1.263h21.473c3.158 0 5.684 1.895 6.316 5.053l5.684 27.79c0 .631 0 .631.632 1.263 0-.632.631-.632.631-.632l13.264-32.21c-.632-.632 0-1.264.631-1.264h13.263c0 .632 0 .632-.631 1.264l-19.58 46.105c-.63 1.263-.63 1.894-1.262 2.526-.632.632-1.895 0-3.158 0h-9.474c-.631 0-1.263 0-1.263-1.263L49.895 59.999c-1.264-1.263-3.158-3.158-5.685-3.79-3.789-1.894-10.736-3.157-12-3.157l-.631-1.264Z"/></g><defs><clipPath id="a"><path fill="#fff" d="M0 0h240v150H0z"/></clipPath></defs></svg>