<svg xmlns="http://www.w3.org/2000/svg" width="240" height="150" fill="none"><g clip-path="url(#a)"><path fill="#000" d="M221.053 0H18.947C8.211 0 0 8.125 0 18.75v112.5C0 141.875 8.842 150 18.947 150h202.106c10.736 0 18.947-8.125 18.947-18.75V18.75C240 8.125 231.158 0 221.053 0Z" opacity=".07"/><path fill="#fff" d="M221.333 6C228.3 6 234 11.646 234 18.546v112.909c0 6.9-5.7 12.545-12.667 12.545H18.667C11.7 144 6 138.355 6 131.455V18.545C6 11.646 11.7 6 18.667 6h202.666Z"/><path fill="#EB001B" d="M94.737 119.999c24.417 0 44.21-19.794 44.21-44.21 0-24.417-19.793-44.21-44.21-44.21s-44.21 19.793-44.21 44.21c0 24.416 19.793 44.21 44.21 44.21Z"/><path fill="#F79E1B" d="M145.263 119.999c24.417 0 44.211-19.794 44.211-44.21 0-24.417-19.794-44.21-44.211-44.21-24.417 0-44.21 19.793-44.21 44.21 0 24.416 19.793 44.21 44.21 44.21Z"/><path fill="#FF5F00" d="M138.947 75.79c0-15.159-7.578-28.422-18.947-36-11.368 8.21-18.947 21.473-18.947 36 0 14.525 7.579 28.42 18.947 35.999 11.369-7.579 18.947-20.842 18.947-36Z"/></g><defs><clipPath id="a"><path fill="#fff" d="M0 0h240v150H0z"/></clipPath></defs></svg>