<svg xmlns="http://www.w3.org/2000/svg" width="240" height="150" fill="none"><g clip-path="url(#a)"><path fill="#000" d="M221.053 0H18.947C8.211 0 0 8.125 0 18.75v112.5C0 141.875 8.842 150 18.947 150h202.106c10.736 0 18.947-8.125 18.947-18.75V18.75C240 8.125 231.158 0 221.053 0Z" opacity=".07"/><path fill="#fff" d="M221.333 6C228.3 6 234 11.646 234 18.546v112.909c0 6.9-5.7 12.545-12.667 12.545H18.667C11.7 144 6 138.355 6 131.455V18.545C6 11.646 11.7 6 18.667 6h202.666Z"/><path fill="#5F6368" d="M114.272 75.638v20.21h-6.43V45.953h16.996a15.458 15.458 0 0 1 11.034 4.37 14.41 14.41 0 0 1 4.567 10.038 14.4 14.4 0 0 1-3.873 10.325l-.694.733a15.46 15.46 0 0 1-11.034 4.257l-10.566-.038Zm0-23.57v17.608h10.724a8.512 8.512 0 0 0 6.347-2.552 8.78 8.78 0 0 0 1.74-9.532 8.78 8.78 0 0 0-8.087-5.335l-10.724-.19Zm40.951 8.513a16.033 16.033 0 0 1 11.23 3.871 13.5 13.5 0 0 1 4.105 10.415v21.057h-6.12v-4.838h-.31a12.184 12.184 0 0 1-10.566 5.88 13.703 13.703 0 0 1-9.448-3.366 10.52 10.52 0 0 1-3.872-8.362 10.147 10.147 0 0 1 3.872-8.438 17.342 17.342 0 0 1 10.724-3.253 18.873 18.873 0 0 1 9.41 2.09v-1.313a7.155 7.155 0 0 0-2.633-5.69 8.944 8.944 0 0 0-6.19-2.325 9.758 9.758 0 0 0-8.33 4.529l-5.653-3.563a15.714 15.714 0 0 1 13.781-6.694Zm-8.128 24.808a4.994 4.994 0 0 0 2.128 4.181 7.734 7.734 0 0 0 4.958 1.661 10.33 10.33 0 0 0 7.238-2.98 9.549 9.549 0 0 0 3.019-6.967 12.928 12.928 0 0 0-8.362-2.362 10.836 10.836 0 0 0-6.505 1.857 5.576 5.576 0 0 0-2.476 4.61Zm58.648-23.684-21.41 49.2h-6.619l8.09-17.23-14.046-31.97h6.966l10.181 24.537 9.91-24.537h6.928Z"/><path fill="#4285F4" d="M88.333 71.268c0-1.946-.152-3.891-.461-5.811H60.777v11.034h15.48a13.239 13.239 0 0 1-5.684 8.671v7.162h9.246a27.997 27.997 0 0 0 8.514-21.056Z"/><path fill="#34A853" d="M60.815 99.29a27.487 27.487 0 0 0 19.01-6.929l-9.259-7.2a17.379 17.379 0 0 1-25.857-9.095h-9.486v7.39A28.61 28.61 0 0 0 60.815 99.29Z"/><path fill="#FBBC04" d="M44.71 76.105a17.11 17.11 0 0 1 0-10.958v-7.39h-9.487a28.453 28.453 0 0 0 0 25.738l9.486-7.39Z"/><path fill="#EA4335" d="M60.815 53.306a15.487 15.487 0 0 1 10.99 4.295l8.21-8.166a27.6 27.6 0 0 0-19.358-7.472 28.61 28.61 0 0 0-25.434 15.79l9.486 7.395a17.148 17.148 0 0 1 16.106-11.842Z"/></g><defs><clipPath id="a"><path fill="#fff" d="M0 0h240v150H0z"/></clipPath></defs></svg>