<svg xmlns="http://www.w3.org/2000/svg" width="240" height="150" fill="none"><g clip-path="url(#a)"><path fill="#000" d="M221.053 0H18.947C8.211 0 0 8.125 0 18.75v112.5C0 141.875 8.842 150 18.947 150h202.106c10.736 0 18.947-8.125 18.947-18.75V18.75C240 8.125 231.158 0 221.053 0Z" opacity=".07"/><path fill="#fff" d="M221.333 6C228.3 6 234 11.646 234 18.546v112.909c0 6.9-5.7 12.545-12.667 12.545H18.667C11.7 144 6 138.355 6 131.455V18.545C6 11.646 11.7 6 18.667 6h202.666Z"/><path fill="#232F3E" fill-rule="evenodd" d="M134.614 83.034h-3.776a.717.717 0 0 1-.67-.715V62.403a.72.72 0 0 1 .727-.652h3.514a.72.72 0 0 1 .671.556v3.046h.074c1.059-2.723 2.545-4.021 5.16-4.021 1.697 0 3.353.628 4.423 2.345.989 1.594.989 4.275.989 6.202v12.53a.726.726 0 0 1-.728.625h-3.809a.714.714 0 0 1-.67-.625V71.596l.003-.523v-.002c.018-2.129.041-4.839-2.374-4.839a2.493 2.493 0 0 0-2.193 1.593c-.53 1.216-.6 2.431-.6 3.778v10.716a.733.733 0 0 1-.738.715h-.003ZM118.619 61.36c5.623 0 8.665 4.944 8.665 11.228 0 6.075-3.354 10.892-8.665 10.892-5.516 0-8.52-4.945-8.52-11.101 0-6.157 3.041-11.02 8.52-11.02Zm.037 4.065c-2.793 0-2.971 3.894-2.971 6.325v.08c0 2.464-.001 7.543 2.934 7.543 2.968 0 3.078-4.19 3.078-6.744 0-1.676-.07-3.688-.566-5.278-.426-1.373-1.275-1.926-2.475-1.926Zm-70.038 17.65h-3.785a.72.72 0 0 1-.67-.657V62.502a.725.725 0 0 1 .723-.71h3.531a.72.72 0 0 1 .67.686v2.6h.071c.92-2.517 2.653-3.688 4.986-3.688 2.334 0 3.853 1.17 4.916 3.688.71-1.937 2.384-3.332 4.38-3.649 1.997-.316 4.005.494 5.254 2.12 1.03 1.435.997 3.431.966 5.307-.005.317-.01.63-.01.936v12.565a.74.74 0 0 1-.22.514.706.706 0 0 1-.512.204h-3.785a.717.717 0 0 1-.67-.715V71.805c0-.16.002-.366.005-.6.012-.99.03-2.485-.113-3.13-.282-1.339-1.13-1.716-2.227-1.716a2.519 2.519 0 0 0-2.263 1.63c-.361.938-.358 2.447-.356 3.565v10.803a.74.74 0 0 1-.218.513.706.706 0 0 1-.51.204h-3.795a.72.72 0 0 1-.67-.714V71.805c0-.217.003-.443.006-.675.03-2.153.068-4.82-2.354-4.82-2.619 0-2.617 3.035-2.615 5.33v10.716a.74.74 0 0 1-.22.514.706.706 0 0 1-.511.204h-.004Zm-11.268.244a.767.767 0 0 0 .895-.092l.03.007c.755-.69 2.13-1.913 2.904-2.576.295-.257.241-.687 0-1.03a28.746 28.746 0 0 0-.222-.307c-.62-.852-1.21-1.661-1.21-3.288v-6.04l.002-.581c.012-2.333.022-4.468-1.678-6.098-1.449-1.428-3.856-1.93-5.7-1.93-3.605 0-7.63 1.377-8.47 5.937a.7.7 0 0 0 .111.53.67.67 0 0 0 .452.28l3.641.41a.805.805 0 0 0 .67-.715c.316-1.57 1.604-2.328 3.049-2.328.784 0 1.663.292 2.126 1.006.475.717.467 1.669.46 2.524l-.001.292v.501c-.344.04-.705.078-1.077.117-2 .209-4.312.45-6.045 1.23-2.347 1.05-4.024 3.19-4.024 6.338 0 4.031 2.481 6.047 5.67 6.047 2.693 0 4.165-.65 6.247-2.82l.277.42c.496.758.82 1.252 1.893 2.166Zm-2.923-9.362v-1.023c-2.74 0-5.634.601-5.634 3.905 0 1.682.849 2.815 2.3 2.815 1.067 0 2.022-.673 2.626-1.765.71-1.293.709-2.504.708-3.932Zm56.177 5.35v-.001c-.621-.852-1.21-1.661-1.21-3.285v-6.043l.002-.619c.013-2.32.025-4.438-1.679-6.06-1.452-1.428-3.86-1.93-5.7-1.93-3.605 0-7.629 1.374-8.474 5.937a.7.7 0 0 0 .112.532.668.668 0 0 0 .455.282l3.672.405a.809.809 0 0 0 .67-.714c.319-1.57 1.6-2.328 3.045-2.328.781 0 1.677.295 2.126 1.01.478.714.47 1.666.464 2.521l-.001.29v.492c-.337.038-.69.075-1.055.113-2.005.207-4.33.448-6.067 1.23-2.374 1.05-4.04 3.19-4.04 6.342 0 4.028 2.48 6.043 5.67 6.043 2.682 0 4.164-.649 6.243-2.819.099.148.188.284.272.412.504.769.823 1.256 1.9 2.174a.775.775 0 0 0 .896-.09c.754-.686 2.13-1.912 2.904-2.575.325-.237.271-.656.017-1.013a30.239 30.239 0 0 0-.222-.307Zm-7.222-1.434c-.6 1.088-1.56 1.761-2.622 1.761-1.452 0-2.3-1.133-2.3-2.812 0-3.307 2.893-3.904 5.633-3.904v.991c0 1.447.001 2.663-.711 3.964Zm10.65-12.603v-2.836a.696.696 0 0 1 .199-.52.662.662 0 0 1 .51-.198h12.449a.686.686 0 0 1 .509.202.721.721 0 0 1 .209.516v2.442c0 .408-.335.944-.936 1.788l-6.451 9.43c2.394-.059 4.926.309 7.102 1.562.402.22.658.643.671 1.11v3.048c0 .42-.446.904-.919.653a14.04 14.04 0 0 0-13.154.024c-.433.237-.886-.24-.886-.66V78.93a3.5 3.5 0 0 1 .463-1.954l7.474-10.988h-6.518a.684.684 0 0 1-.511-.2.719.719 0 0 1-.21-.518Zm65.806-1.022a11.147 11.147 0 0 1 3.215-2.033 9.245 9.245 0 0 1 3.494-.687 8.003 8.003 0 0 1 3.458.714 7.103 7.103 0 0 1 2.618 2.116 9.94 9.94 0 0 1 1.65 3.378c.402 1.452.596 2.956.577 4.464a15.748 15.748 0 0 1-.617 4.554 10.47 10.47 0 0 1-1.727 3.457 7.84 7.84 0 0 1-2.703 2.219 7.83 7.83 0 0 1-3.531.758 8.74 8.74 0 0 1-6.153-2.403v9.532a.73.73 0 0 1-.197.611.691.691 0 0 1-.597.203h-2.347a.69.69 0 0 1-.597-.203.727.727 0 0 1-.198-.611v-27.37a.73.73 0 0 1 .199-.61.695.695 0 0 1 .596-.205h1.747a.825.825 0 0 1 .627.207.867.867 0 0 1 .288.607l.198 1.302Zm5.6.528a8.732 8.732 0 0 0-5.321 1.872v11.331c1.694 1.305 3.441 1.956 5.241 1.954 3.653 0 5.479-2.518 5.479-7.554 0-5.037-1.799-7.572-5.399-7.606v.003Zm14.369 1.003.298-.103a20.017 20.017 0 0 1 5.828-.927c1.59.003 2.702.301 3.337.897.634.595.952 1.625.952 3.09v2.671a20.992 20.992 0 0 0-5.003-.686c-2.329-.003-4.182.587-5.56 1.768-1.377 1.181-2.065 2.76-2.065 4.739.004 1.843.563 3.313 1.677 4.412 1.113 1.099 2.622 1.648 4.526 1.648a9.149 9.149 0 0 0 3.437-.686 10.82 10.82 0 0 0 3.156-1.95l.201 1.342a.82.82 0 0 0 .274.578.781.781 0 0 0 .598.194h1.71a.694.694 0 0 0 .595-.204.73.73 0 0 0 .199-.61V68.06c-.002-2.226-.599-3.866-1.79-4.921-1.192-1.056-3.045-1.583-5.56-1.583-1.251 0-2.5.115-3.732.343a14.064 14.064 0 0 0-3.135.896 1.49 1.49 0 0 0-.634.43c-.13.242-.186.518-.161.793v1.088c0 .491.181.735.517.735a.988.988 0 0 0 .335-.062Zm7.688 13.938a7.954 7.954 0 0 1-2.74.525c-1.032.002-1.827-.275-2.384-.831-.556-.556-.835-1.35-.835-2.38-.002-2.36 1.495-3.54 4.49-3.54.71.002 1.419.05 2.123.144.701.09 1.397.22 2.085.385v4.151a10.309 10.309 0 0 1-2.739 1.546Zm16.912 10.678c.938-.814 1.767-2.157 2.484-4.027l8.739-22.773a3.21 3.21 0 0 0 .278-.979c0-.323-.185-.487-.557-.487h-2.223a1.408 1.408 0 0 0-.875.202 2.213 2.213 0 0 0-.473.896l-5.365 15.779-5.563-15.779a2.19 2.19 0 0 0-.473-.896 1.406 1.406 0 0 0-.875-.203h-2.384c-.369 0-.553.165-.553.488.038.34.131.67.275.979l7.652 19.37-.755 2.06c-.449 1.303-.952 2.198-1.509 2.685a3.44 3.44 0 0 1-2.347.732 5.466 5.466 0 0 1-1.069-.083 3.572 3.572 0 0 0-.597-.079c-.399 0-.597.258-.597.773v1.058c-.022.291.047.582.198.83.165.198.389.334.637.388.738.2 1.5.296 2.263.286 1.52.002 2.75-.405 3.689-1.22Z" clip-rule="evenodd"/><path fill="#F90" fill-rule="evenodd" d="M100.257 95.74c.862-2.194 2.78-7.111 1.868-8.303h.006c-.908-1.194-6.005-.567-8.297-.285h-.005c-.697.086-.805-.536-.178-.985 4.07-2.93 10.74-2.092 11.515-1.103.774.99-.211 7.836-4.024 11.105-.587.502-1.147.234-.885-.429Zm-27.39 3.386c8.866 0 19.19-2.867 26.303-8.241v.01c1.177-.906.167-2.239-1.033-1.717a62.703 62.703 0 0 1-24.522 5.15c-11.689 0-22.996-3.282-32.143-8.731-.801-.478-1.398.364-.728.978 8.807 8.137 20.263 12.613 32.124 12.55Z" clip-rule="evenodd"/></g><defs><clipPath id="a"><path fill="#fff" d="M0 0h240v150H0z"/></clipPath></defs></svg>