<svg width="90" xmlns="http://www.w3.org/2000/svg" viewBox="0 0 600 500" style="height:auto!important;enable-background:new 0 0 600 500"><style>.stT4_0230{fill:#494949!important}.stT4_0231{fill:#fff!important}</style><path class="stT4_0230" d="M546 250c0 14.2-13.1 27.1-15.5 40.7-2.4 13.9 5.5 30.5.7 43.5-4.8 13.2-21.6 20.8-28.5 32.9-7 12.1-5.3 30.5-14.2 41.1-9 10.7-27.3 12.1-38 21.1-10.7 9-15.3 26.8-27.4 33.8-12 7-29.7 2.1-43 6.9-13 4.7-23.4 19.9-37.3 22.4-13.5 2.4-28.5-8.3-42.7-8.3-14.2 0-29.2 10.7-42.7 8.3-13.9-2.4-24.3-17.6-37.3-22.4-13.2-4.8-31 .1-43-6.9-12.1-7-16.7-24.9-27.4-33.8-10.7-9-29.1-10.4-38-21.1-9-10.7-7.2-29-14.2-41.1-7-12-23.7-19.6-28.5-32.9-4.7-13 3.2-29.6.7-43.5C67.1 277.1 54 264.2 54 250c0-14.2 13.1-27.1 15.5-40.7 2.4-13.9-5.5-30.5-.7-43.5 4.8-13.2 21.6-20.8 28.5-32.9 7-12.1 5.3-30.5 14.2-41.1 9-10.7 27.3-12.1 38-21.1 10.7-9 15.3-26.8 27.4-33.8 12-7 29.7-2.1 43-6.9 13-4.7 23.4-19.9 37.3-22.4C270.8 5.3 285.8 16 300 16c14.2 0 29.2-10.7 42.7-8.3 13.9 2.4 24.3 17.6 37.3 22.4 13.2 4.8 31-.1 43 6.9 12.1 7 16.7 24.9 27.4 33.8 10.7 9 29.1 10.4 38 21.1 9 10.7 7.2 29 14.2 41.1 7 12 23.7 19.6 28.5 32.9 4.7 13-3.2 29.6-.7 43.5 2.5 13.5 15.6 26.4 15.6 40.6z"/><circle class="stT4_0231" cx="300" cy="250" r="212.8"/><path d="M567.2 347.7H32.8c-6 0-9-11-4.9-17.6l18.1-29c4.1-6.5 4-16.8-.1-23.3L28 249.6c-4.1-6.6-1-17.6 4.9-17.6h534.3c6 0 9 11 4.9 17.6l-18 28.6c-4.1 6.5-4.1 16.8 0 23.3l18 28.6c4.1 6.6 1.1 17.6-4.9 17.6z" style="fill:#329625!important"/><path class="stT4_0231" d="M26.1 338.5H574c.1-1.5 0-3.1-.3-4.6H26.4c-.4 1.6-.5 3.1-.3 4.6zm.1-95.9c0 1.5.3 3.1.8 4.6h546.3c.5-1.5.8-3 .8-4.6H26.2z"/><path class="stT4_0230" d="m303 149.9 5.8 11.8 13 1.9-9.4 9.2 2.2 12.9-11.6-6.1-11.6 6.1 2.2-12.9-9.4-9.2 13-1.9zm-46.6 19.4 3.7 7.6 8.3 1.2-6 5.8 1.4 8.3-7.4-3.9-7.5 3.9 1.5-8.3-6-5.8 8.3-1.2zm-36.7 26.8 3.7 7.5 8.3 1.2-6 5.9 1.5 8.3-7.5-3.9-7.4 3.9 1.4-8.3-6-5.9 8.3-1.2zm130.9-26.8 3.7 7.6 8.3 1.2-6 5.8 1.5 8.3-7.5-3.9-7.4 3.9 1.4-8.3-6-5.8 8.3-1.2zm35.7 26.8 3.7 7.5 8.3 1.2-6 5.9 1.4 8.3-7.4-3.9-7.5 3.9 1.5-8.3-6-5.9 8.3-1.2zM303 431.3l-5.8-11.7-13-1.9 9.4-9.2-2.2-13 11.6 6.2 11.6-6.2-2.2 13 9.4 9.2-13 1.9zm46.6-19.4-3.7-7.5-8.3-1.2 6-5.9-1.4-8.2 7.4 3.9 7.5-3.9-1.5 8.2 6 5.9-8.3 1.2zm36.7-26.8-3.7-7.5-8.3-1.2 6-5.8-1.5-8.3 7.5 3.9 7.4-3.9-1.4 8.3 6 5.8-8.3 1.2zm-130.9 26.8-3.7-7.5-8.3-1.2 6-5.9-1.5-8.2 7.5 3.9 7.4-3.9-1.4 8.2 6 5.9-8.3 1.2zm-35.7-26.8-3.7-7.5-8.3-1.2 6-5.8-1.4-8.3 7.4 3.9 7.5-3.9-1.5 8.3 6 5.8-8.3 1.2zm-35.4-186.4-56.2-34.4 7.7-12.7c2-3.3 4.8-5.8 8.2-7.4 2.9-1.4 6.2-1.6 10-.7 2 .5 4.2 1.4 6.5 2.9 3.8 2.3 6.2 5.1 7.2 8.5.4 1.4.6 2.9.4 4.3 1.9-1.4 4.3-2.2 7.2-2.2 2 0 4.2.5 6.7 1.4 1.3.5 2.7 1.2 4.1 2.1 3.6 2.2 6.2 4.7 7.8 7.5 1.3 2.2 1.9 4.7 1.9 7.3 0 3-.7 5.5-1.9 7.6l-9.6 15.8zm-27.7-29.5 2.2-3.5c1.6-2.6 1.4-5.2-.6-7.7-.8-.9-1.8-1.8-3.2-2.7-2.3-1.4-4.5-1.9-6.3-1.5-1.8.4-3.1 1.4-4.2 3.1l-2.2 3.5 14.3 8.8zm24.9 15.2 2.2-3.5c1.8-2.9 1.5-5.8-.8-8.7-.8-1-1.8-1.9-3.1-2.7-3.1-1.9-5.8-2.7-8-2.4-2 .3-3.6 1.4-4.9 3.5l-2.2 3.5 16.8 10.3zm23.3-17.4-44.9-48.3 20.7-19.3 6.8 7.3-13.4 12.5 12.3 13.2 9.8-9.1 6.8 7.3-9.8 9.1 12.3 13.2 13.4-12.5 6.8 7.3-20.8 19.3zm44.1-51.1c2.2 4 3 8 2.4 12.1-.4 2.7-1.7 5.2-3.8 7.3-1.2 1.2-2.7 2.3-4.5 3.3-3.4 1.8-6.7 2.5-9.9 2-2.6-.4-5.1-1.5-7.5-3.3-2.4-1.8-4.5-4.2-6.3-7.3l8-5c2.2 3.2 4.4 5.1 6.6 5.9 1.7.6 3.1.5 4.5-.3 1.9-1.1 2.9-2.8 3.1-5.3.1-1.2-.3-2.7-1.2-4.3-1.3-2.4-3.7-4.3-7.1-5.5-2.6-.7-6.5-1.8-11.7-3.2-4.4-1.3-7.8-2.7-10.2-4.3-2.6-1.8-4.7-4.2-6.3-7.1-2.8-5.3-3.2-10.2-1.1-14.9 1.3-2.8 3.6-5.1 6.8-6.8 3.1-1.7 6.2-2.4 9.2-2.2 2.3.2 4.5.9 6.6 2.3 2.1 1.4 3.9 3.3 5.5 5.7l-7.6 6c-1.5-2.3-3.2-3.7-5-4.5-1.3-.5-2.7-.4-4.3.4-1.6.9-2.4 2.2-2.5 4.1-.1 1.5.4 3.1 1.3 4.8 1.4 2.7 4 4.8 7.8 6.3 1.4.6 3.4 1.1 5.9 1.6 2.9.6 4.9 1.1 6 1.4 3.3 1 6.1 2.3 8.4 3.7 1.1.7 2 1.4 2.8 2 1.7 1.9 3.1 3.5 4.1 5.1zm8.3-43.2L246.9 75l-2.2-9.7 30.3-6.8 2.2 9.7-10.3 2.3 12.2 54.6-9.7 2.2-12.2-54.6zM319 57.9c4.8.4 8.5 2.3 11.1 5.6 2.4 3.1 3.4 6.9 3 11.4l-.8 9.5c-.4 4.3-2.2 7.9-5.5 10.7-3.3 2.8-7.1 4-11.4 3.7l-5.7-.5-2.1 24.8-9.9-.8 5.6-65.7 15.7 1.3zm4.5 16.4c.1-1.7-.2-3.2-1.2-4.3-.9-1.1-2.3-1.8-4-1.9l-6-.5-1.8 21 6 .5c1.6.1 3-.3 4.1-1.3s1.8-2.3 2-3.9l.9-9.6zm47.1-4.7c5.2 2 8.4 4.9 9.7 8.6 1.2 3.3.9 7.2-.8 11.6l-3.4 8.9c-1.7 4.4-4.7 7.4-9.2 9.1l-3.4 29.5-10-3.8 3.2-25.4-.9-.3-5.3-2-8.9 23.2-9.3-3.6L356 64.1l14.6 5.5zm-.2 17c1.4-3.6.3-6-3.2-7.4l-5.6-2.1-7.5 19.7 5.6 2.1c1.5.6 2.9.5 4.4-.1 1.4-.7 2.4-1.7 3-3.2l3.3-9zm5.4 59.7-8.3-5.4 35.8-55.3 8.3 5.4-35.8 55.3zm15.6 14.2c-3.1-3.1-4.7-6.8-4.7-11.1s1.5-8 4.5-11.2l25.3-25.7c3.1-3.1 6.8-4.7 11.1-4.7 4.4 0 8.1 1.5 11.2 4.5 3.1 3.1 4.7 6.8 4.7 11.1s-1.5 8-4.6 11.1l-5.3 5.4-7.3-7.2 5.4-5.5c1.1-1.1 1.7-2.5 1.7-4.1 0-1.6-.6-2.9-1.7-4s-2.5-1.6-4-1.6c-1.6 0-2.9.6-4 1.7L398.2 145c-1.1 1.1-1.7 2.5-1.7 4 0 1.6.6 2.9 1.7 4s2.5 1.7 4.1 1.7c1.6 0 2.9-.6 4-1.7l6.4-6.5 7.3 7.2-6.4 6.5c-3.1 3.1-6.8 4.7-11.1 4.7-4.3.1-8-1.4-11.1-4.4zm14.1 13.7 56.9-33.3 14.3 24.4-8.6 5-9.3-15.8-15.6 9.1 6.8 11.6-8.6 5-6.8-11.6-15.6 9.1 9.3 15.8-8.6 5-14.2-24.3z"/><path class="stT4_0231" d="M160.1 286.4h14.7v21.1c0 10.7-5.3 16.8-15.6 16.8s-15.6-6.1-15.6-16.8v-34.7c0-10.7 5.3-16.8 15.6-16.8s15.6 6.1 15.6 16.8v6.5h-9.9v-7.1c0-4.8-2.1-6.6-5.4-6.6s-5.4 1.8-5.4 6.6v36c0 4.8 2.1 6.5 5.4 6.5s5.4-1.7 5.4-6.5v-12.3h-4.8v-9.5zm31.5-29.5v51.4c0 4.8 2.1 6.5 5.4 6.5s5.4-1.7 5.4-6.5v-51.4h9.9v50.8c0 10.7-5.3 16.8-15.6 16.8s-15.6-6.1-15.6-16.8v-50.8h10.5zm61.8 66.6h-10.6l-1.8-12.1h-12.9l-1.8 12.1h-9.6l10.7-66.7h15.3l10.7 66.7zm-23.9-21.1h10.1l-5-33.7h-.2l-4.9 33.7zm50.6 21.1c-.6-1.7-1-2.8-1-8.2v-10.5c0-6.2-2.1-8.5-6.9-8.5h-3.6v27.1h-10.5v-66.7H274c10.9 0 15.5 5 15.5 15.3v5.2c0 6.9-2.2 11.2-6.9 13.4v.2c5.2 2.2 7 7.1 7 14.1v10.3c0 3.2.1 5.6 1.1 8.1h-10.6zm-11.4-57.1v20.5h4.1c3.9 0 6.3-1.7 6.3-7v-6.6c0-4.8-1.6-6.9-5.3-6.9h-5.1zm61.7 57.1h-10.6l-1.8-12.1h-12.9l-1.8 12.1h-9.6l10.7-66.7h15.3l10.7 66.7zm-23.9-21.1h10.1l-5-33.7h-.2l-4.9 33.7zm38.3-27.2h-.2v48.3h-9.4v-66.7h13.1l10.6 39.9h.2v-39.9h9.3v66.7h-10.8l-12.8-48.3zm28-18.3h32.4v9.5h-10.9v57.1h-10.5v-57.1h-10.9v-9.5zm47.5 28.1h14.4v9.5h-14.4V314h18.1v9.5h-28.6v-66.7h28.6v9.5h-18.1V285zm35 0h14.4v9.5h-14.4V314h18.1v9.5h-28.6v-66.7h28.6v9.5h-18.1V285z"/></svg>