<svg width="90" xmlns="http://www.w3.org/2000/svg" viewBox="0 0 600 500" style="height:auto!important;enable-background:new 0 0 600 500"><style>.stT4_0170{fill:#494949!important}.stT4_0171{fill:#fff!important}</style><path class="stT4_0170" d="M547 250c0 14.2-13.1 27.1-15.5 40.7-2.4 13.9 5.5 30.5.7 43.5-4.8 13.2-21.6 20.8-28.5 32.9-7 12.1-5.3 30.5-14.2 41.1-9 10.7-27.3 12.1-38 21.1-10.7 9-15.3 26.8-27.4 33.8-12 7-29.7 2.1-43 6.9-13 4.7-23.4 19.9-37.3 22.4-13.5 2.4-28.5-8.3-42.7-8.3-14.2 0-29.2 10.7-42.7 8.3-13.9-2.4-24.3-17.6-37.3-22.4-13.2-4.8-31 .1-43-6.9-12.1-7-16.7-24.9-27.4-33.8-10.7-9-29.1-10.4-38-21.1-9-10.7-7.2-29-14.2-41.1-7-12-23.7-19.6-28.5-32.9-4.7-13 3.2-29.6.7-43.5C68.1 277.1 55 264.2 55 250c0-14.2 13.1-27.1 15.5-40.7 2.4-13.9-5.5-30.5-.7-43.5 4.8-13.2 21.6-20.8 28.5-32.9 7-12.1 5.3-30.5 14.2-41.1 9-10.7 27.3-12.1 38-21.1 10.7-9 15.3-26.8 27.4-33.8 12-7 29.7-2.1 43-6.9 13-4.7 23.4-19.9 37.3-22.4C271.8 5.3 286.8 16 301 16c14.2 0 29.2-10.7 42.7-8.3 13.9 2.4 24.3 17.6 37.3 22.4 13.2 4.8 31-.1 43 6.9 12.1 7 16.7 24.9 27.4 33.8 10.7 9 29.1 10.4 38 21.1 9 10.7 7.2 29 14.2 41.1 7 12 23.7 19.6 28.5 32.9 4.7 13-3.2 29.6-.7 43.5 2.5 13.5 15.6 26.4 15.6 40.6z"/><circle class="stT4_0171" cx="301" cy="250" r="212.8"/><path class="stT4_0170" d="M301.1 441.2h-.1c-4.9 0-9.9-.2-14.9-.6-.8-.1-1.4-.7-1.4-1.5v-.1c.1-.8.8-1.5 1.6-1.4 4.8.4 9.8.6 14.6.6h.1c.8 0 1.5.7 1.5 1.5.1.8-.6 1.5-1.4 1.5zm14.9-.6c-.8 0-1.4-.6-1.5-1.4v-.1c0-.8.6-1.4 1.4-1.5h.1c4.9-.4 9.8-1 14.6-1.7.8-.1 1.6.4 1.7 1.3.1.8-.4 1.6-1.3 1.7-4.9.8-9.9 1.4-14.9 1.8 0-.1-.1-.1-.1-.1zm-44.5-1.7h-.2c-4.9-.8-9.9-1.7-14.7-2.9-.7-.2-1.2-.8-1.2-1.5 0-.1 0-.2.1-.3.2-.8 1-1.3 1.8-1.1 4.8 1.1 9.6 2.1 14.5 2.9.4.1.8.3 1 .6.2.3.3.7.3 1.1-.3.6-.9 1.2-1.6 1.2zm73.9-2.9c-.7 0-1.3-.5-1.5-1.2v-.3c0-.7.5-1.3 1.2-1.5 4.8-1.2 9.6-2.5 14.2-4 .8-.3 1.6.2 1.9 1 .3.8-.2 1.6-1 1.9-4.8 1.5-9.6 2.9-14.4 4.1-.2-.1-.3 0-.4 0zm-102.9-4c-.2 0-.3 0-.5-.1-4.7-1.5-9.5-3.3-14.1-5.2-.6-.2-.9-.8-.9-1.4 0-.2 0-.4.1-.6.3-.7 1.2-1.1 2-.8 4.5 1.9 9.2 3.6 13.9 5.1.4.1.7.4.9.8.2.3.2.8.1 1.1-.3.7-.8 1.1-1.5 1.1zm131.2-5.2c-.6 0-1.2-.4-1.4-.9-.1-.2-.1-.4-.1-.6 0-.6.4-1.2.9-1.4 4.5-1.9 9.1-4 13.4-6.2.7-.4 1.7-.1 2 .6.4.7.1 1.7-.7 2-4.5 2.3-9 4.4-13.6 6.3-.1.1-.3.2-.5.2zM215 420.6c-.2 0-.5 0-.7-.2-4.4-2.3-8.8-4.7-13.1-7.3-.5-.3-.7-.8-.7-1.3 0-.3.1-.5.2-.8.4-.7 1.4-.9 2.1-.5 4.2 2.6 8.5 5 12.9 7.2.4.2.6.5.7.9s.1.8-.1 1.1c-.2.6-.7.9-1.3.9zm185.1-7.4c-.5 0-1-.3-1.3-.7-.1-.2-.2-.5-.2-.8 0-.5.3-1 .7-1.3 4.2-2.6 8.3-5.3 12.3-8.2.6-.5 1.6-.3 2.1.3.5.7.3 1.6-.3 2.1-4 2.9-8.2 5.7-12.5 8.4-.2.1-.5.2-.8.2zM189.6 405c-.3 0-.6-.1-.9-.3-4-2.9-8-6.1-11.8-9.3-.3-.3-.5-.7-.5-1.1 0-.4.1-.7.4-1 .5-.6 1.5-.7 2.1-.2 3.7 3.2 7.6 6.3 11.6 9.1.7.5.8 1.4.3 2.1-.2.5-.7.7-1.2.7zm234.6-9.3c-.4 0-.8-.2-1.1-.5-.2-.3-.4-.6-.4-1s.2-.9.5-1.1c3.7-3.2 7.4-6.5 10.8-10 .6-.6 1.6-.6 2.1 0 .6.6.6 1.5 0 2.1-3.5 3.5-7.2 6.9-11 10.1-.2.3-.5.4-.9.4zm-257.2-10c-.4 0-.8-.2-1.1-.4-3.5-3.5-7-7.2-10.2-11-.2-.3-.4-.6-.4-1s.2-.9.5-1.1c.6-.5 1.6-.4 2.1.2 3.2 3.7 6.5 7.4 10 10.8.6.6.6 1.5 0 2.1-.1.2-.5.4-.9.4zm278.2-11c-.3 0-.7-.1-1-.4-.3-.3-.5-.7-.5-1.1 0-.4.1-.7.4-1 3.2-3.7 6.3-7.6 9.2-11.6.5-.6 1.4-.8 2.1-.3.7.5.8 1.4.3 2.1-2.9 4-6.1 8-9.3 11.8-.3.3-.7.5-1.2.5zm-297.6-11.6c-.5 0-.9-.2-1.2-.6-2.9-4.1-5.8-8.3-8.3-12.5-.2-.2-.2-.5-.2-.8 0-.5.3-1 .7-1.3.7-.4 1.6-.2 2.1.5 2.6 4.2 5.3 8.3 8.2 12.3.5.7.3 1.6-.3 2.1-.3.2-.6.3-1 .3zm315.2-12.5c-.3 0-.5-.1-.8-.2-.5-.3-.7-.8-.7-1.3 0-.3.1-.5.2-.8 2.6-4.2 5-8.5 7.2-12.9.4-.7 1.3-1 2-.7.7.4 1 1.3.7 2-2.3 4.5-4.7 8.9-7.4 13.1-.2.5-.7.8-1.2.8zM132 337.8c-.6 0-1.1-.3-1.3-.8-2.3-4.5-4.4-9-6.3-13.6-.1-.2-.1-.4-.1-.6 0-.6.4-1.1.9-1.4.8-.3 1.7.1 2 .8 1.9 4.5 4 9 6.2 13.4.2.4.2.8.1 1.1-.1.4-.4.7-.7.9-.3.1-.5.2-.8.2zm344.3-13.7c-.2 0-.4 0-.6-.1-.6-.2-.9-.8-.9-1.4 0-.2 0-.4.1-.6 1.9-4.5 3.6-9.2 5.1-13.9.3-.8 1.1-1.2 1.9-1 .4.1.7.4.9.8.2.3.2.8.1 1.1-1.5 4.7-3.3 9.5-5.2 14.1-.3.6-.8 1-1.4 1zm-355.7-13.8c-.6 0-1.2-.4-1.4-1-1.5-4.7-2.9-9.6-4.1-14.4v-.3c0-.7.5-1.3 1.1-1.5.8-.2 1.6.3 1.8 1.1 1.1 4.8 2.5 9.5 4 14.2.1.4.1.8-.1 1.1-.2.4-.5.6-.9.8h-.4zm364.9-14.5h-.3c-.7-.2-1.2-.8-1.2-1.5v-.3c1.1-4.8 2.1-9.6 2.9-14.5.1-.8.9-1.4 1.7-1.3.8.1 1.4.9 1.3 1.7-.8 4.9-1.8 9.9-2.9 14.7-.2.7-.8 1.2-1.5 1.2zm-371.8-14.4c-.7 0-1.4-.5-1.5-1.3-.8-4.9-1.4-9.9-1.8-14.9v-.1c0-.8.6-1.4 1.4-1.5.8-.1 1.5.6 1.6 1.4.4 4.9 1 9.8 1.7 14.7.1.4 0 .8-.3 1.1-.2.3-.6.5-1 .6h-.1zm376.4-15h-.1c-.8-.1-1.4-.7-1.4-1.5v-.1c.4-4.9.6-9.9.6-14.8v-.4c0-.4.1-.8.4-1.1.3-.3.7-.4 1.1-.4.8 0 1.5.7 1.5 1.5v.5c0 5-.2 10-.6 15-.1.7-.7 1.3-1.5 1.3zm-378.8-14.7c-.8 0-1.5-.7-1.5-1.5v-.2c0-4.9.2-9.9.6-14.8.1-.8.8-1.4 1.6-1.4.8.1 1.4.7 1.4 1.5v.1c-.4 4.8-.5 9.7-.5 14.5v.2c-.1 1-.7 1.6-1.6 1.6zm378.8-15.5c-.8 0-1.4-.6-1.5-1.4-.4-4.9-1-9.8-1.8-14.7-.1-.4 0-.8.3-1.1.2-.3.6-.5 1-.6.8-.1 1.6.4 1.7 1.3.8 4.9 1.4 9.9 1.8 14.9v.1c0 .8-.6 1.4-1.4 1.5-.1-.1-.1 0-.1 0zm-376.5-14.1h-.2c-.4-.1-.8-.3-1-.6-.2-.3-.3-.7-.3-1.1.8-4.9 1.7-9.9 2.9-14.7.2-.8 1-1.3 1.8-1.1.7.2 1.1.8 1.1 1.5v.3c-1.1 4.8-2.1 9.6-2.8 14.5-.1.6-.8 1.2-1.5 1.2zm371.8-15.3c-.7 0-1.3-.5-1.5-1.1-1.1-4.8-2.5-9.6-4-14.2-.1-.4-.1-.8.1-1.1.2-.4.5-.6.9-.8.8-.3 1.6.2 1.9 1 1.5 4.7 2.9 9.6 4.1 14.4v.3c0 .7-.5 1.3-1.2 1.5h-.3zm-364.9-13.7c-.1 0-.3 0-.5-.1-.4-.1-.7-.4-.9-.7-.2-.4-.2-.8-.1-1.2 1.5-4.7 3.3-9.5 5.2-14.1.3-.7 1.2-1.1 2-.8.6.2.9.8.9 1.4 0 .2 0 .4-.1.6-1.9 4.5-3.6 9.2-5.1 13.9-.2.6-.8 1-1.4 1zm355.6-14.6c-.6 0-1.2-.4-1.4-.9-1.9-4.5-4-9-6.2-13.4-.2-.4-.2-.8-.1-1.1.1-.4.4-.7.7-.9.7-.4 1.6-.1 2 .6 2.3 4.4 4.4 9 6.3 13.5v.1c.1.2.1.4.1.6 0 .6-.4 1.1-.9 1.4-.1.1-.3.1-.5.1zm-344.2-12.9c-.2 0-.5 0-.7-.2-.4-.2-.6-.5-.8-.9-.1-.4-.1-.8.1-1.1 2.3-4.5 4.8-8.9 7.3-13.1.4-.7 1.4-.9 2.1-.5.5.3.7.8.7 1.3 0 .3-.1.5-.2.8-2.6 4.2-5 8.5-7.2 12.9-.3.5-.8.8-1.3.8zm330.6-13.5c-.5 0-1-.3-1.3-.7-2.6-4.2-5.3-8.3-8.2-12.3-.2-.3-.3-.7-.3-1.1.1-.4.3-.7.6-1 .7-.5 1.6-.3 2.1.3 3 4 5.8 8.2 8.4 12.5.1.2.2.5.2.8 0 .5-.3 1-.7 1.3-.2.1-.5.2-.8.2zm-315.1-11.9c-.3 0-.6-.1-.9-.3-.7-.5-.8-1.4-.3-2.1 2.9-4 6.1-8 9.3-11.8.5-.6 1.5-.7 2.1-.2.3.3.5.7.5 1.1 0 .4-.1.7-.4 1-3.2 3.8-6.3 7.6-9.1 11.6-.3.5-.7.7-1.2.7zM445 128c-.4 0-.8-.2-1.1-.5-3.2-3.7-6.6-7.4-10-10.8-.3-.3-.4-.7-.4-1.1s.2-.8.4-1.1c.6-.6 1.5-.6 2.1 0 3.5 3.5 7 7.2 10.2 11 .2.3.4.6.4 1s-.2.8-.5 1.1c-.4.3-.8.4-1.1.4zm-278.3-10.4c-.4 0-.8-.2-1-.4-.3-.3-.5-.7-.5-1.1 0-.4.2-.8.4-1.1 3.5-3.5 7.2-7 11-10.2.6-.5 1.6-.4 2.1.2.2.3.4.6.4 1s-.2.9-.5 1.1c-3.7 3.2-7.4 6.6-10.8 10-.3.3-.7.5-1.1.5zM423.9 107c-.4 0-.7-.1-1-.4-3.7-3.2-7.6-6.3-11.6-9.1-.7-.5-.8-1.4-.3-2.1.5-.6 1.4-.8 2.1-.3 4 2.9 8 6.1 11.8 9.3.3.3.5.7.5 1.1 0 .4-.1.7-.4 1-.2.3-.7.5-1.1.5zm-234.6-8.8c-.5 0-.9-.2-1.2-.6-.5-.7-.3-1.6.3-2.1 4-2.9 8.2-5.8 12.5-8.4.7-.4 1.6-.2 2.1.5.1.2.2.5.2.8 0 .5-.3 1-.7 1.3-4.2 2.6-8.3 5.4-12.3 8.2-.3.2-.6.3-.9.3zm210.5-8.6c-.3 0-.5-.1-.8-.2-4.2-2.6-8.5-5-12.9-7.2-.3-.2-.6-.5-.7-.9-.1-.4-.1-.8.1-1.2.4-.7 1.3-1 2-.7 4.4 2.3 8.8 4.7 13.1 7.3.4.3.7.8.7 1.3 0 .3-.1.5-.2.8-.3.5-.8.8-1.3.8zm-185.2-7c-.6 0-1.1-.3-1.3-.8-.4-.7-.1-1.6.7-2 4.4-2.3 9-4.4 13.6-6.3.8-.3 1.6.1 2 .8.1.2.1.4.1.6 0 .6-.4 1.1-.9 1.4-4.5 1.9-9 4-13.4 6.2-.3 0-.5.1-.8.1zm158.7-6.5c-.2 0-.4 0-.6-.1-4.5-1.9-9.2-3.6-13.9-5.1-.4-.1-.7-.4-.9-.8-.2-.4-.2-.8-.1-1.1.3-.8 1.1-1.2 1.9-1 4.7 1.5 9.5 3.3 14.1 5.2.6.2.9.8.9 1.4 0 .2 0 .4-.1.6-.2.5-.7.9-1.3.9zm-131.2-4.9c-.7 0-1.2-.4-1.4-1-.1-.4-.1-.8.1-1.1.2-.4.5-.6.9-.8 4.7-1.5 9.6-2.9 14.4-4.1.8-.2 1.6.3 1.8 1.1v.3c0 .7-.5 1.3-1.2 1.5-4.8 1.1-9.5 2.5-14.2 4-.1 0-.3.1-.4.1zm102.8-4.3h-.4c-4.7-1.1-9.6-2.1-14.4-2.8-.4-.1-.7-.3-1-.6-.2-.3-.3-.7-.3-1.1.1-.8.9-1.4 1.7-1.3 4.9.8 9.9 1.7 14.7 2.9.7.2 1.2.8 1.2 1.5v.3c-.2.7-.8 1.1-1.5 1.1zM271 64.2c-.7 0-1.4-.5-1.5-1.3-.1-.4 0-.8.3-1.1.2-.3.6-.5 1-.6 4.9-.8 9.9-1.4 14.9-1.8.8-.1 1.5.6 1.6 1.4v.1c0 .8-.6 1.4-1.4 1.5-4.9.4-9.8 1-14.7 1.8h-.2zm44.5-1.8h-.1c-4.8-.4-9.6-.6-14.4-.6h-.4c-.8 0-1.5-.7-1.5-1.5 0-.4.1-.8.4-1.1.3-.3.7-.4 1.1-.4h.4c4.9 0 9.8.2 14.6.6.8.1 1.4.7 1.4 1.5v.1c0 .8-.7 1.4-1.5 1.4z"/><path d="M568.2 347.7H33.8c-6 0-9-11-4.9-17.6l18.1-29c4.1-6.5 4-16.8-.1-23.3L29 249.6c-4.1-6.6-1-17.6 4.9-17.6h534.3c6 0 9 11 4.9 17.6l-18 28.6c-4.1 6.5-4.1 16.8 0 23.3l18 28.6c4.1 6.6 1.1 17.6-4.9 17.6z" style="fill:#329625!important"/><path class="stT4_0171" d="M27.1 338.5H575c.1-1.5 0-3.1-.3-4.6H27.4c-.4 1.6-.5 3.1-.3 4.6zm.1-95.9c0 1.5.3 3.1.8 4.6h546.3c.5-1.5.8-3 .8-4.6H27.2zm154.7 27.7c0-11 5.8-17.3 16.4-17.3 10.6 0 16.4 6.3 16.4 17.3v35.8c0 3.8-.7 7.1-2.1 9.6.5 1.3 1.3 1.5 3.1 1.5h1v9.6h-1.5c-4.8 0-7.9-1.8-9.4-4.7-2.2.8-4.7 1.3-7.6 1.3-10.6 0-16.4-6.3-16.4-17.3v-35.8zm10.8 36.5c0 4.9 2.2 6.8 5.6 6.8 3.4 0 5.6-1.9 5.6-6.8v-37.2c0-4.9-2.2-6.8-5.6-6.8-3.4 0-5.6 1.9-5.6 6.8v37.2zm39.4-53V307c0 4.9 2.2 6.7 5.6 6.7s5.6-1.8 5.6-6.7v-53.2h10.2v52.5c0 11-5.5 17.3-16.1 17.3s-16.1-6.3-16.1-17.3v-52.5h10.8zm63.9 68.9h-10.9l-1.9-12.5h-13.3l-1.9 12.5h-9.9l11-68.9H285l11 68.9zm-24.7-21.9h10.4l-5.1-34.8h-.2l-5.1 34.8zm29.7-47h10.8v59.1h17.8v9.8H301v-68.9zm33.4 0h10.8v68.9h-10.8v-68.9zm15.5 0h33.5v9.8h-11.3v59.1h-10.8v-59.1H350v-9.8zm48.4 46-13.7-46.1h11.3l8.2 31.4h.2l8.2-31.4h10.3l-13.7 46.1v22.8h-10.8v-22.8z"/><path class="stT4_0170" d="M213.2 168.6v7.8c0 9.6-4.7 14.9-14.1 14.9h-4.5V214h-9.5v-60.3h14c9.4 0 14.1 5.3 14.1 14.9zm-18.6-6.2v20.4h4.5c3 0 4.7-1.4 4.7-5.7v-9c0-4.3-1.6-5.7-4.7-5.7h-4.5zm42.8 51.6c-.5-1.6-.9-2.5-.9-7.4v-9.5c0-5.6-1.9-7.7-6.2-7.7H227V214h-9.5v-60.3h14.3c9.8 0 14 4.6 14 13.9v4.7c0 6.2-2 10.2-6.2 12.1v.2c4.7 2 6.3 6.5 6.3 12.8v9.3c0 2.9.1 5.1 1 7.3h-9.5zm-10.3-51.6v18.5h3.7c3.5 0 5.7-1.6 5.7-6.4v-5.9c0-4.3-1.5-6.2-4.8-6.2h-4.6zm34.6 16.8h13v8.6h-13v17.7h16.4v8.6h-25.8v-60.3h25.8v8.6h-16.4v16.8zm42.2 17.4h.2l6.4-42.8h13.2V214h-9v-43.2h-.2l-6.4 43.2h-9l-6.9-42.6h-.2V214h-8.3v-60.3H297l6.9 42.9zm26.6-42.9h9.5V214h-9.5v-60.3zm25.4 0v46.5c0 4.3 1.9 5.9 4.9 5.9 3 0 4.9-1.6 4.9-5.9v-46.5h9v45.9c0 9.6-4.8 15.2-14.1 15.2s-14.1-5.5-14.1-15.2v-45.9h9.4zm45.3 42.9h.2l6.4-42.8H421V214h-9v-43.2h-.2l-6.4 43.2h-9l-6.9-42.6h-.2V214H381v-60.3h13.2l7 42.9zM301 80.7l5.8 11.8 13 1.8-9.4 9.2 2.2 13-11.6-6.1-11.6 6.1 2.2-13-9.4-9.2 13-1.8zM258.4 98l3.7 7.5 8.3 1.2-6 5.9 1.4 8.2-7.4-3.9-7.5 3.9 1.4-8.2-6-5.9 8.3-1.2zm85.2 1.2 3.8 7.5 8.3 1.2-6 5.9 1.4 8.2-7.5-3.9-7.4 3.9 1.4-8.2-6-5.9 8.3-1.2zm-41.9 282.7 5.8 11.6 12.9 1.9-9.3 9.1 2.2 12.8-11.6-6-11.5 6 2.2-12.8-9.3-9.1 12.9-1.9zm-42.6.9 3.7 7.5 8.3 1.2-6 5.9 1.4 8.3-7.4-3.9-7.4 3.9 1.4-8.3-6-5.9 8.3-1.2zm84.9-4.9 3.6 7.5 8.3 1.1-6 5.8 1.4 8.2-7.3-3.8-7.4 3.8 1.4-8.2-5.9-5.8 8.2-1.1z"/></svg>