<svg width="90" xmlns="http://www.w3.org/2000/svg" viewBox="0 0 600 500" style="height:auto!important;enable-background:new 0 0 600 500"><style>.stTstamp_ribbon-fast_shipping0{fill:#494949!important}.stTstamp_ribbon-fast_shipping1{fill:#fff!important}</style><path class="stTstamp_ribbon-fast_shipping0" d="M547 250c0 14.2-13.1 27.1-15.5 40.7-2.4 13.9 5.5 30.5.7 43.5-4.8 13.2-21.6 20.8-28.5 32.9-7 12.1-5.3 30.5-14.2 41.1-9 10.7-27.3 12.1-38 21.1-10.7 9-15.3 26.8-27.4 33.8-12 7-29.7 2.1-43 6.9-13 4.7-23.4 19.9-37.3 22.4-13.5 2.4-28.5-8.3-42.7-8.3-14.2 0-29.2 10.7-42.7 8.3-13.9-2.4-24.3-17.6-37.3-22.4-13.2-4.8-31 .1-43-6.9-12.1-7-16.7-24.9-27.4-33.8-10.7-9-29.1-10.4-38-21.1-9-10.7-7.2-29-14.2-41.1-7-12-23.7-19.6-28.5-32.9-4.7-13 3.2-29.6.7-43.5C68.1 277.1 55 264.2 55 250c0-14.2 13.1-27.1 15.5-40.7 2.4-13.9-5.5-30.5-.7-43.5 4.8-13.2 21.6-20.8 28.5-32.9 7-12.1 5.3-30.5 14.2-41.1 9-10.7 27.3-12.1 38-21.1 10.7-9 15.3-26.8 27.4-33.8 12-7 29.7-2.1 43-6.9 13-4.7 23.4-19.9 37.3-22.4C271.8 5.3 286.8 16 301 16c14.2 0 29.2-10.7 42.7-8.3 13.9 2.4 24.3 17.6 37.3 22.4 13.2 4.8 31-.1 43 6.9 12.1 7 16.7 24.9 27.4 33.8 10.7 9 29.1 10.4 38 21.1 9 10.7 7.2 29 14.2 41.1 7 12 23.7 19.6 28.5 32.9 4.7 13-3.2 29.6-.7 43.5 2.5 13.5 15.6 26.4 15.6 40.6z"/><circle class="stTstamp_ribbon-fast_shipping1" cx="301" cy="250" r="212.8"/><path class="stTstamp_ribbon-fast_shipping0" d="M301 449c-2.5 0-5 0-7.4-.1h-.1c-.8 0-1.4-.7-1.4-1.5v-.1c0-.8.7-1.5 1.6-1.4 5 .2 10.1.2 15 0 .8-.1 1.5.6 1.6 1.5 0 .8-.6 1.5-1.4 1.5-2.8 0-5.4.1-7.9.1zm-22.5-1.3h-.2c-5-.6-10.1-1.4-15.1-2.3-.7-.1-1.2-.8-1.2-1.5v-.3c.2-.8 1-1.4 1.8-1.2 4.9.9 9.9 1.7 14.8 2.3.4 0 .8.2 1 .5.2.3.4.7.3 1.1 0 .9-.7 1.4-1.4 1.4zm45.3 0c-.8 0-1.4-.6-1.5-1.3v-.2c0-.8.6-1.4 1.3-1.5 5-.6 9.9-1.3 14.8-2.3.8-.2 1.6.4 1.8 1.2.2.8-.4 1.6-1.2 1.8-5 1-10.1 1.7-15.1 2.3h-.1zm-75-5.7h-.4c-4.8-1.3-9.7-2.9-14.5-4.6h-.1c-.6-.2-1-.8-1-1.4 0-.2 0-.3.1-.5.3-.8 1.1-1.2 1.9-.9h.1c4.7 1.7 9.5 3.2 14.2 4.5.4.1.7.4.9.7.2.4.3.8.1 1.1 0 .7-.6 1.1-1.3 1.1zm104.6 0c-.7 0-1.3-.4-1.4-1.1 0-.1-.1-.3-.1-.4 0-.7.5-1.3 1.1-1.4 4.8-1.3 9.6-2.8 14.3-4.5.8-.3 1.6.1 1.9.9.3.8-.1 1.6-.9 1.9-4.8 1.7-9.6 3.3-14.5 4.6-.1-.1-.2 0-.4 0zm-133.1-10.2c-.2 0-.4 0-.6-.1-4.6-2.1-9.2-4.3-13.7-6.8-.5-.3-.8-.8-.8-1.3 0-.3.1-.5.2-.7.4-.7 1.3-1 2-.6 4.4 2.4 8.9 4.6 13.5 6.7.4.2.6.5.8.8.1.4.1.8 0 1.1-.3.6-.8.9-1.4.9zm161.6-.1c-.6 0-1.1-.3-1.4-.9-.1-.2-.1-.4-.1-.6 0-.6.3-1.1.9-1.4 4.5-2 9.1-4.3 13.4-6.7.7-.4 1.6-.1 2 .6.4.7.1 1.6-.6 2-4.4 2.4-9 4.7-13.6 6.8-.2.2-.4.2-.6.2zm-188.2-14.3c-.3 0-.6-.1-.8-.2-4.3-2.8-8.4-5.7-12.5-8.8-.4-.3-.6-.7-.6-1.2 0-.3.1-.6.3-.9.5-.6 1.5-.8 2.1-.3 4 3 8.1 5.9 12.3 8.6.7.5.9 1.4.4 2.1-.2.4-.6.7-1.2.7zm214.7-.1c-.5 0-1-.3-1.3-.7-.1-.3-.2-.5-.2-.8 0-.5.3-1 .7-1.3 4.2-2.7 8.3-5.6 12.3-8.7.6-.5 1.6-.3 2.1.3.3.3.4.7.3 1.1 0 .4-.3.8-.6 1-4 3.1-8.2 6-12.4 8.8-.3.2-.6.3-.9.3zM169.7 399c-.4 0-.7-.1-1-.4-3.8-3.4-7.5-6.9-11-10.6-.3-.3-.4-.6-.4-1s.2-.8.5-1.1c.6-.6 1.6-.5 2.1 0 3.5 3.6 7.1 7.1 10.8 10.4.6.5.7 1.5.1 2.1-.3.4-.7.6-1.1.6zm262.7-.1c-.4 0-.8-.2-1.1-.5-.3-.3-.4-.6-.4-1s.2-.8.5-1.1c3.7-3.3 7.4-6.8 10.8-10.4.6-.6 1.5-.6 2.1 0 .6.6.6 1.5 0 2.1-3.5 3.7-7.2 7.2-11 10.6-.2.2-.5.3-.9.3zm-283.7-21.6c-.4 0-.9-.2-1.2-.5-3.2-3.9-6.4-8-9.3-12.1-.2-.3-.3-.6-.3-.9 0-.5.2-.9.6-1.2.7-.5 1.6-.3 2.1.4 2.9 4.1 5.9 8.1 9.1 11.9.5.6.4 1.6-.2 2.1-.1.1-.4.3-.8.3zm304.7-.2c-.4 0-.7-.1-1-.3-.4-.3-.5-.7-.5-1.2 0-.3.1-.7.3-1 3.2-3.8 6.2-7.8 9.1-11.9.5-.7 1.4-.8 2.1-.4.7.5.8 1.4.4 2.1-2.9 4.1-6 8.2-9.3 12.1-.2.4-.7.6-1.1.6zm-322.1-24.5c-.5 0-1-.3-1.3-.7-2.6-4.3-5-8.8-7.3-13.4-.1-.2-.2-.5-.2-.7 0-.6.3-1.1.8-1.3.7-.4 1.6 0 2 .7 2.2 4.4 4.6 8.9 7.2 13.2.4.7.2 1.6-.5 2-.2.1-.4.2-.7.2zm339.5-.2c-.3 0-.5-.1-.8-.2-.5-.3-.7-.8-.7-1.3 0-.3.1-.5.2-.8 2.6-4.3 5-8.7 7.2-13.2.4-.7 1.3-1 2-.7.4.2.6.5.8.9.1.4.1.8-.1 1.2-2.2 4.5-4.7 9-7.3 13.4-.3.4-.8.7-1.3.7zm-353-26.9c-.6 0-1.2-.4-1.4-.9-1.9-4.7-3.6-9.5-5.2-14.3 0-.1-.1-.3-.1-.4 0-.7.4-1.2 1-1.4.8-.3 1.6.2 1.9 1 1.5 4.7 3.2 9.5 5.1 14.1.1.4.1.8 0 1.2-.1.4-.4.7-.8.8-.1-.1-.3-.1-.5-.1zm366.4-.2c-.2 0-.4 0-.6-.1-.6-.2-.9-.8-.9-1.4 0-.2 0-.4.1-.5 1.9-4.6 3.6-9.4 5.1-14.1.2-.8 1.1-1.2 1.9-1 .8.3 1.2 1.1 1 1.9-1.5 4.8-3.3 9.7-5.2 14.4-.2.5-.8.8-1.4.8zm-375.5-28.6c-.7 0-1.3-.5-1.5-1.1-1.1-4.9-2.1-10-2.9-15v-.2c0-.7.5-1.4 1.3-1.5.8-.1 1.6.5 1.7 1.3.8 4.9 1.7 9.9 2.9 14.7.2.8-.3 1.6-1.1 1.8h-.4zm384.6-.2h-.3c-.7-.2-1.2-.8-1.2-1.5v-.3c1.1-4.8 2.1-9.8 2.8-14.7.1-.8.9-1.4 1.7-1.3.4.1.8.3 1 .6.2.3.3.7.3 1.1-.8 5-1.7 10.1-2.9 15-.1.6-.7 1.1-1.4 1.1zm-389.2-29.7c-.8 0-1.4-.6-1.5-1.4-.4-5-.6-10.2-.6-15.2 0-.4.2-.8.4-1.1.3-.3.7-.4 1.1-.4.8 0 1.5.7 1.5 1.5 0 5 .2 10.1.6 15 .1.8-.5 1.5-1.4 1.6h-.1zm393.8-.2h-.1c-.8-.1-1.4-.7-1.4-1.5v-.1c.4-5 .6-10 .6-15v-.4c0-.4.1-.8.4-1.1.3-.3.6-.4 1.1-.4.8 0 1.5.7 1.5 1.5v.5c0 5.1-.2 10.2-.6 15.2 0 .7-.7 1.3-1.5 1.3zm-393.9-30h-.1c-.8-.1-1.4-.8-1.4-1.6.4-5.1.9-10.1 1.7-15.1.1-.8.9-1.4 1.7-1.3.7.1 1.3.7 1.3 1.5v.2c-.7 4.9-1.3 9.9-1.7 14.9 0 .8-.7 1.4-1.5 1.4zm393.9-.7c-.8 0-1.4-.6-1.5-1.4-.4-5-1-10-1.7-14.9-.1-.4 0-.8.3-1.1.2-.3.6-.5 1-.6.8-.1 1.6.4 1.7 1.3.8 5 1.4 10 1.8 15.1v.2c0 .8-.6 1.4-1.4 1.5-.1-.1-.2-.1-.2-.1zm-389.3-29.2h-.3c-.4-.1-.7-.3-.9-.7s-.3-.8-.2-1.1c1.1-4.9 2.5-9.9 4-14.7.2-.8 1.1-1.2 1.9-1 .6.2 1 .8 1 1.4 0 .1 0 .3-.1.5-1.5 4.8-2.8 9.6-3.9 14.5-.2.6-.8 1.1-1.5 1.1zm384.7-.6c-.7 0-1.3-.5-1.5-1.2-1.1-4.8-2.5-9.7-4-14.5-.3-.8.2-1.6 1-1.9.8-.3 1.6.2 1.9 1 1.5 4.8 2.9 9.8 4.1 14.7v.3c0 .7-.5 1.3-1.2 1.5-.1.1-.2.1-.3.1zm-375.6-28.2c-.2 0-.4 0-.6-.1-.4-.2-.7-.4-.8-.8-.2-.4-.2-.8 0-1.2 1.9-4.7 4-9.4 6.2-13.9.4-.7 1.3-1 2-.7.5.3.8.8.8 1.4 0 .2 0 .5-.2.7-2.2 4.5-4.3 9.1-6.1 13.7-.2.5-.7.9-1.3.9zm366.4-.6c-.6 0-1.2-.4-1.4-.9-1.9-4.6-3.9-9.2-6.2-13.7-.2-.4-.2-.8-.1-1.1.1-.4.4-.7.8-.9.7-.4 1.7 0 2 .7 2.3 4.5 4.4 9.2 6.3 13.9.1.2.1.4.1.5 0 .6-.4 1.2-.9 1.4-.2 0-.4.1-.6.1zm-353-26.5c-.3 0-.5-.1-.8-.2-.4-.2-.6-.5-.7-.9-.1-.4 0-.8.2-1.1 2.6-4.3 5.4-8.6 8.3-12.8.5-.6 1.4-.8 2.1-.4.4.3.6.7.6 1.2 0 .3-.1.6-.3.9-2.9 4.1-5.6 8.3-8.2 12.6-.2.4-.7.7-1.2.7zm339.5-.6c-.5 0-1-.3-1.3-.7-2.6-4.3-5.3-8.5-8.2-12.6-.5-.7-.3-1.6.4-2.1.6-.5 1.6-.3 2.1.3 2.9 4.2 5.7 8.4 8.3 12.8.1.2.2.5.2.8 0 .5-.3 1-.7 1.3-.3.2-.5.2-.8.2zM148.5 126c-.3 0-.7-.1-.9-.3-.3-.3-.5-.6-.5-1s.1-.8.3-1.1c3.2-3.9 6.6-7.7 10.1-11.4.6-.6 1.5-.6 2.1 0 .3.3.5.7.5 1.1 0 .4-.1.8-.4 1-3.4 3.6-6.8 7.3-9.9 11.2-.5.3-.9.5-1.3.5zm304.6-.4c-.4 0-.9-.2-1.1-.5-3.2-3.8-6.5-7.6-10-11.1-.3-.3-.4-.7-.4-1.1 0-.4.2-.8.5-1.1.6-.6 1.6-.5 2.1 0 3.5 3.6 6.9 7.5 10.2 11.4.2.3.3.6.3 1s-.2.9-.5 1.2c-.4 0-.7.2-1.1.2zm-283.7-21.4c-.4 0-.8-.2-1.1-.5-.3-.3-.4-.7-.4-1.1 0-.4.2-.8.5-1 3.8-3.4 7.7-6.7 11.7-9.7.6-.5 1.6-.4 2.1.3.2.3.3.6.3.9 0 .5-.2.9-.6 1.2-3.9 3-7.8 6.2-11.6 9.6-.2.2-.5.3-.9.3zm262.7-.4c-.4 0-.7-.1-1-.4-3.7-3.3-7.6-6.5-11.6-9.5-.7-.5-.8-1.5-.3-2.1.5-.6 1.5-.8 2.1-.3 4 3.1 8 6.3 11.8 9.7.3.3.5.7.5 1.1 0 .4-.1.7-.4 1-.2.3-.6.5-1.1.5zm-238.7-18c-.5 0-1-.3-1.3-.7-.2-.3-.3-.7-.2-1.1.1-.4.3-.7.6-.9 4.2-2.8 8.6-5.4 13.1-7.8.7-.4 1.6-.1 2 .6.1.2.2.5.2.7 0 .6-.3 1.1-.8 1.3-4.4 2.4-8.7 5-12.9 7.7-.1.2-.4.2-.7.2zm214.7-.3c-.3 0-.6-.1-.8-.2-4.2-2.7-8.6-5.3-12.9-7.7-.7-.4-1-1.3-.6-2s1.3-1 2-.6c4.5 2.4 8.9 5 13.1 7.8.4.3.7.8.7 1.3 0 .3-.1.6-.2.8-.4.3-.8.6-1.3.6zM219.9 71.3c-.6 0-1.1-.3-1.4-.9-.2-.4-.2-.8 0-1.2.1-.4.4-.7.8-.8 4.6-2.1 9.3-4 14-5.7h.1c.8-.3 1.6.2 1.9.9.1.2.1.3.1.5 0 .6-.4 1.2-1 1.4h-.1c-4.7 1.7-9.3 3.6-13.8 5.6-.2.2-.4.2-.6.2zm161.6-.2c-.2 0-.4-.1-.6-.1-4.5-2-9.2-3.9-13.9-5.6-.8-.3-1.2-1.1-.9-1.9.3-.8 1.2-1.2 1.9-.9 4.8 1.7 9.5 3.6 14.2 5.7.5.2.9.8.9 1.4 0 .2-.1.4-.1.6-.4.4-.9.8-1.5.8zm-133.2-10c-.7 0-1.3-.5-1.4-1.1-.2-.8.3-1.6 1-1.8 4.9-1.3 9.9-2.5 14.8-3.5.8-.2 1.6.4 1.8 1.2v.3c0 .7-.5 1.3-1.2 1.5-4.9 1-9.8 2.1-14.6 3.4h-.4zm104.7-.2c-.1 0-.3 0-.4-.1-4.8-1.3-9.7-2.5-14.6-3.4-.4-.1-.7-.3-1-.6-.2-.3-.3-.7-.2-1.1.2-.8 1-1.3 1.8-1.2 5 1 10 2.1 14.8 3.4.6.2 1.1.8 1.1 1.4v.4c-.2.8-.8 1.2-1.5 1.2zm-75-5.6c-.8 0-1.4-.6-1.5-1.3-.1-.8.5-1.6 1.3-1.7 5-.6 10.1-1 15.2-1.2h.1c.8 0 1.5.6 1.5 1.4 0 .8-.6 1.5-1.4 1.5h-.1c-5 .2-10 .6-14.9 1.2-.1.1-.1.1-.2.1zm45.3-.1h-.3c-4.9-.5-9.9-.9-14.9-1.1-.4 0-.8-.2-1.1-.5-.3-.3-.4-.7-.4-1.1 0-.8.7-1.5 1.6-1.4 5 .2 10.1.6 15.1 1.1h.1c.8.1 1.3.7 1.3 1.5v.1c0 .9-.6 1.4-1.4 1.4z"/><path d="M568.2 313.7H33.8c-6 0-9-11-4.9-17.6l18.1-29c4.1-6.5 4-16.8-.1-23.3L29 215.6c-4.1-6.6-1-17.6 4.9-17.6h534.3c6 0 9 11 4.9 17.6l-18 28.6c-4.1 6.5-4.1 16.8 0 23.3l18 28.6c4.1 6.6 1.1 17.6-4.9 17.6z" style="fill:#329625!important"/><path class="stTstamp_ribbon-fast_shipping1" d="M27.1 304.5H575c.1-1.5 0-3.1-.3-4.6H27.4c-.4 1.6-.5 3.1-.3 4.6zm.1-95.9c0 1.5.3 3.1.8 4.6h546.3c.5-1.5.8-3 .8-4.6H27.2zm216.4 44.6h14.2v10h-14.2v29h-11V222h29.2v10h-18.1v21.2zm57.8 39h-11.1l-1.9-12.7h-13.5l-1.9 12.7h-10.1l11.2-70.2h16.1l11.2 70.2zm-25.1-22.3h10.6l-5.2-35.5h-.2l-5.2 35.5zm45.1-48.7c10.7 0 16.2 6.4 16.2 17.6v2.2h-10.4v-2.9c0-5-2-6.9-5.5-6.9s-5.5 1.9-5.5 6.9c0 5.1 2.2 8.9 9.4 15.2 9.2 8.1 12.1 13.9 12.1 21.9 0 11.2-5.6 17.6-16.4 17.6-10.8 0-16.4-6.4-16.4-17.6V271h10.4v5c0 5 2.2 6.8 5.7 6.8s5.7-1.8 5.7-6.8c0-5.1-2.2-8.9-9.4-15.2-9.2-8.1-12.1-13.9-12.1-21.9-.1-11.3 5.4-17.7 16.2-17.7zm19.4.8h34.1v10h-11.5v60.1h-11V232h-11.5v-10z"/><path class="stTstamp_ribbon-fast_shipping0" d="M195.6 324.5c9.6 0 14.5 5.7 14.5 15.8v2h-9.3v-2.6c0-4.5-1.8-6.2-4.9-6.2-3.1 0-4.9 1.7-4.9 6.2 0 4.6 2 8 8.4 13.6 8.2 7.3 10.8 12.5 10.8 19.6 0 10-5 15.8-14.7 15.8s-14.7-5.7-14.7-15.8V369h9.3v4.5c0 4.5 2 6.1 5.1 6.1 3.1 0 5.1-1.6 5.1-6.1 0-4.6-2-8-8.4-13.6-8.2-7.3-10.8-12.5-10.8-19.6 0-10.1 4.9-15.8 14.5-15.8zm30.1 63.5h-9.9v-62.7h9.9v26.9h11.2v-26.9h10V388h-10v-26.9h-11.2V388zm28.5-62.8h9.9V388h-9.9v-62.8zm46.2 15.5v8.2c0 10-4.8 15.5-14.7 15.5H281V388h-9.9v-62.7h14.5c10-.1 14.8 5.4 14.8 15.4zm-19.4-6.5v21.2h4.7c3.1 0 4.8-1.4 4.8-5.9v-9.4c0-4.5-1.7-5.9-4.8-5.9H281zm53.2 6.5v8.2c0 10-4.8 15.5-14.7 15.5h-4.7V388H305v-62.7h14.5c9.9-.1 14.7 5.4 14.7 15.4zm-19.4-6.5v21.2h4.7c3.1 0 4.8-1.4 4.8-5.9v-9.4c0-4.5-1.7-5.9-4.8-5.9h-4.7zm24-9h9.9V388h-9.9v-62.8zm26 17.3h-.2V388h-8.9v-62.7h12.4l9.9 37.6h.2v-37.6h8.8V388h-10.1l-12.1-45.5zm44.1 10.5h13.8v19.9c0 10-5 15.8-14.7 15.8s-14.7-5.7-14.7-15.8v-32.6c0-10 5-15.8 14.7-15.8s14.7 5.7 14.7 15.8v6.1h-9.3v-6.7c0-4.5-2-6.2-5.1-6.2-3.1 0-5.1 1.7-5.1 6.2v33.9c0 4.5 2 6.1 5.1 6.1 3.1 0 5.1-1.6 5.1-6.1V362h-4.5v-9z"/><circle class="stTstamp_ribbon-fast_shipping0" cx="283.3" cy="168.7" r="16.3"/><circle class="stTstamp_ribbon-fast_shipping0" cx="354.3" cy="168.7" r="16.3"/><path class="stTstamp_ribbon-fast_shipping0" d="M384.4 138.9c-.5-2.9-5.9-26-5.9-26s-.4-5.2-6.4-5.6c-3.8-.3-38.1-4.2-38.1-4.2s-8.1-.5-8.1 7.1v28.7h-4.4v-37.3s-.2-9.8-8.3-9.8h-66.6s-8.1-1-8.1 8.3v3.7h-20.8c-1.7 0-3.1 1.4-3.1 3.1 0 1.7 1.4 3.1 3.1 3.1h29.6c1.7 0 3.1 1.4 3.1 3.1 0 1.7-1.4 3.1-3.1 3.1h-25.1c-1.7 0-3.1 1.4-3.1 3.1 0 1.7 1.4 3.1 3.1 3.1h31.1c1.7 0 3.1 1.4 3.1 3.1s-1.4 3.1-3.1 3.1h-24.4c-1.7 0-3.1 1.4-3.1 3.1 0 1.7 1.4 3.1 3.1 3.1h30.3c1.7 0 3.1 1.4 3.1 3.1 0 1.7-1.4 3.1-3.1 3.1h-20.6v18.4s-1 6.4 5.9 6.4h17.2s4.2-19.6 21.6-19.6c17.4 0 21.6 19.6 21.6 19.6h27.5s1.8-19.4 22-19.4 21.5 19.4 21.5 19.4h7.9s5.9 0 5.9-5.6v-15s.9-6.3-5.3-6.3z"/><path class="stTstamp_ribbon-fast_shipping1" d="m283.3 103.8 5.3 10.7 11.8 1.7-8.6 8.3 2.1 11.7-10.6-5.5-10.5 5.5 2-11.7-8.5-8.3 11.8-1.7z"/></svg>