<svg width="90" xmlns="http://www.w3.org/2000/svg" viewBox="0 0 600 500" style="height:auto!important;enable-background:new 0 0 600 500"><style>.stT4_0210{fill:#494949!important}.stT4_0211{fill:#fff!important}</style><path class="stT4_0210" d="M546 250c0 14.2-13.1 27.1-15.5 40.7-2.4 13.9 5.5 30.5.7 43.5-4.8 13.2-21.6 20.8-28.5 32.9-7 12.1-5.3 30.5-14.2 41.1-9 10.7-27.3 12.1-38 21.1-10.7 9-15.3 26.8-27.4 33.8-12 7-29.7 2.1-43 6.9-13 4.7-23.4 19.9-37.3 22.4-13.5 2.4-28.5-8.3-42.7-8.3-14.2 0-29.2 10.7-42.7 8.3-13.9-2.4-24.3-17.6-37.3-22.4-13.2-4.8-31 .1-43-6.9-12.1-7-16.7-24.9-27.4-33.8-10.7-9-29.1-10.4-38-21.1-9-10.7-7.2-29-14.2-41.1-7-12-23.7-19.6-28.5-32.9-4.7-13 3.2-29.6.7-43.5C67.1 277.1 54 264.2 54 250c0-14.2 13.1-27.1 15.5-40.7 2.4-13.9-5.5-30.5-.7-43.5 4.8-13.2 21.6-20.8 28.5-32.9 7-12.1 5.3-30.5 14.2-41.1 9-10.7 27.3-12.1 38-21.1 10.7-9 15.3-26.8 27.4-33.8 12-7 29.7-2.1 43-6.9 13-4.7 23.4-19.9 37.3-22.4C270.8 5.3 285.8 16 300 16c14.2 0 29.2-10.7 42.7-8.3 13.9 2.4 24.3 17.6 37.3 22.4 13.2 4.8 31-.1 43 6.9 12.1 7 16.7 24.9 27.4 33.8 10.7 9 29.1 10.4 38 21.1 9 10.7 7.2 29 14.2 41.1 7 12 23.7 19.6 28.5 32.9 4.7 13-3.2 29.6-.7 43.5 2.5 13.5 15.6 26.4 15.6 40.6z"/><circle class="stT4_0211" cx="300" cy="250" r="212.8"/><path class="stT4_0210" d="M191.8 187.2c-2.2 3.4-5.4 5.4-9.5 6-4.1.6-8.1-.2-11.8-2.7l-30.7-20.1c-3.7-2.4-6.1-5.7-7.1-9.8-1.1-4.1-.5-7.8 1.7-11.1 2.2-3.4 5.4-5.4 9.5-6 4.2-.6 8.1.3 11.8 2.7l6.4 4.2-5.2 7.9-6.5-4.3c-1.4-.9-2.8-1.2-4.3-1-1.5.2-2.7 1-3.5 2.2-.8 1.2-1 2.5-.6 4s1.3 2.7 2.6 3.5l30.7 20.1c1.4.9 2.8 1.2 4.3 1 1.5-.2 2.6-1 3.4-2.2.8-1.2 1-2.6.6-4-.4-1.5-1.2-2.7-2.6-3.5l-7.7-5.1 5.2-7.9 7.8 5.1c3.7 2.4 6.1 5.7 7.1 9.8s.6 7.9-1.6 11.2zm23.4-27.5c-3 2.7-6.5 3.9-10.7 3.5-4.2-.4-7.7-2.2-10.7-5.5l-35-38.3 6.6-6 34.9 38.3c1.1 1.2 2.4 1.8 3.9 2 1.5.1 2.8-.3 3.9-1.2 1.1-1 1.6-2.2 1.6-3.7s-.6-2.9-1.6-4l-34.9-38.3 7-6.4 35 38.3c3 3.3 4.5 7 4.5 11.2-.1 4-1.6 7.4-4.5 10.1zm35.8-43.2c2.2 4.1 3 8.2 2.4 12.2-.3 2.7-1.5 5-3.5 7-1.1 1.1-2.5 2.1-4.2 3-3.2 1.6-6.3 2.1-9.3 1.4-2.5-.6-4.8-1.8-7.1-3.8-2.3-1.9-4.3-4.5-6.1-7.6l7.4-4.5c2.1 3.3 4.2 5.4 6.3 6.3 1.6.7 3 .7 4.2 0 1.7-1 2.7-2.6 2.8-5 .1-1.2-.3-2.7-1.2-4.4-1.3-2.5-3.5-4.5-6.8-5.9-2.5-.9-6.2-2.2-11.1-3.9-4.2-1.5-7.4-3.2-9.6-4.9-2.5-2-4.5-4.5-6-7.5-2.7-5.4-3.2-10.4-1.3-14.9 1.2-2.7 3.3-4.8 6.3-6.3 2.9-1.5 5.8-2 8.6-1.6 2.2.3 4.2 1.2 6.2 2.7 2 1.5 3.8 3.5 5.3 6l-7 5.5c-1.4-2.3-3-3.9-4.8-4.8-1.3-.6-2.6-.6-4 .1-1.5.7-2.3 2-2.3 3.9 0 1.5.4 3.1 1.3 4.9 1.4 2.7 3.8 5 7.4 6.8 1.3.7 3.2 1.3 5.5 2 2.8.8 4.6 1.4 5.6 1.8 3.1 1.2 5.8 2.6 8 4.3 1 .7 1.9 1.5 2.7 2.2 2 1.6 3.4 3.3 4.3 5zm12.5-44.8-9.5 1.8-1.9-9.9 28-5.3 1.9 9.9-9.5 1.8 10.5 55.9-9 1.7-10.5-55.9zm56.1-14c4 .4 7.3 2.3 9.8 5.7 2.5 3.4 3.5 7.3 3.1 11.7l-3.5 36.4c-.4 4.4-2.2 8.1-5.3 10.9-3.1 2.8-6.7 4.1-10.7 3.7-4-.4-7.2-2.3-9.7-5.7-2.5-3.4-3.5-7.3-3.1-11.7l3.5-36.4c.4-4.4 2.2-8.1 5.3-10.9 3.2-2.9 6.7-4.1 10.6-3.7zm3.5 16.2c.2-1.6-.2-3-1.1-4.2s-2.1-1.9-3.5-2c-1.4-.1-2.7.3-3.8 1.3-1.1 1-1.8 2.3-1.9 3.9l-3.5 36.5c-.2 1.6.2 3 1.1 4.2.9 1.2 2.1 1.9 3.5 2 1.5.1 2.7-.3 3.8-1.3 1.1-1 1.7-2.3 1.9-3.9l3.5-36.5zm20.6 57.4-8.3-3.8 28.2-60.7 11.9 5.5-12.5 47.1 27.7-40.1 11.4 5.3-28.2 60.7-8.3-3.8 17.7-38.2-24.9 34.8-6.6-3.1 9.7-41.8-17.8 38.1zm36.1 19.7 45.5-49.1 19.1 17.7-6.9 7.4-12.4-11.5-12.4 13.5 9 8.4-6.9 7.4-9-8.4-12.5 13.4 12.4 11.5-6.9 7.4-19-17.7zm87.2-2.5c2.8 4.2 3.6 8.2 2.3 11.9-1.1 3.3-3.7 6.2-7.7 8.9l-8.1 5.4c-4 2.6-8.2 3.5-12.7 2.6L420.1 199l-5.4-8.2 18-18.6c-.2-.2-.3-.4-.5-.7l-2.9-4.4-21.1 13.9-5-7.6 55.9-36.9 7.9 12zM456.6 162c3.2-2.1 3.9-4.7 2-7.6l-3-4.6-17.9 11.8 3 4.6c.8 1.2 2 1.9 3.5 2.1 1.5.2 2.9-.1 4.2-1l8.2-5.3zM207.2 342c6.4 5.8 6 12.9-.5 20l-1.3 1.4-6.2-5.7 1.7-1.8c2.9-3.2 2.8-5.5.7-7.4-2.1-1.9-4.4-1.8-7.3 1.4-3 3.2-3.9 6.9-3.2 14.8.8 10.2-.8 15.5-5.5 20.5-6.5 7.1-13.6 8.1-20 2.2-6.5-5.9-6.1-13 .4-20.2l2.5-2.7 6.2 5.7-2.9 3.2c-2.9 3.2-2.6 5.5-.5 7.4 2.1 1.9 4.5 2 7.4-1.2 3-3.2 3.9-6.9 3.2-14.8-.8-10.2.8-15.5 5.5-20.5 6.4-7.1 13.4-8.2 19.8-2.3zm23.3 18.2L208.2 401c-2.1 3.8-1.3 6 1.2 7.4 2.5 1.4 4.8.9 6.9-2.9l22.4-40.8 7.4 4.1-22.1 40.1c-4.6 8.5-11.3 11.1-18.9 6.9-7.7-4.2-9-11.2-4.4-19.7l22.1-40.3 7.7 4.4zm45.8 32.7-2 7.6c-2.4 9.3-8 13.3-16.6 11.1l-4.1-1.1-5.7 21.9-8.6-2.2 15.1-58.4 12.7 3.3c8.7 2.3 11.6 8.5 9.2 17.8zm-15.4-10.5-5.1 19.8 4.1 1.1c2.7.7 4.6-.2 5.7-4.4l2.3-8.8c1.1-4.2-.1-5.9-2.8-6.6l-4.2-1.1zm52.5 11.8-.1 7.8c-.1 9.6-4.5 14.9-13.4 14.8h-4.2l-.1 22.7-8.9-.1.4-60.3 13.1.1c8.9 0 13.3 5.3 13.2 15zm-17.4-6.4-.1 20.4h4.2c2.8 0 4.4-1.3 4.4-5.7l.1-9c0-4.3-1.5-5.7-4.3-5.7H296zm27.4 4.7c-2.3-9.4 1-15.9 9.5-18 8.5-2.1 14.5 2.1 16.8 11.4l7.6 30.4c2.3 9.4-1 15.9-9.5 18s-14.5-2.1-16.8-11.4l-7.6-30.4zm16.3 28.8c1 4.2 3.2 5.3 5.9 4.6s4.1-2.7 3-6.9l-7.9-31.6c-1-4.2-3.2-5.3-5.9-4.6s-4.1 2.7-3 6.9l7.9 31.6zm59.7-8.7c-1.2-1.1-1.9-1.8-4.3-6.1l-4.5-8.3c-2.7-4.9-5.2-5.9-8.8-3.9l-2.7 1.5 11.8 21.5-7.8 4.3-28.9-52.9 11.8-6.5c8.1-4.4 13.8-2.3 18.2 5.8l2.3 4.2c3 5.4 3.2 9.8.7 13.5l.1.2c4.9-.4 8.3 2.8 11.3 8.3l4.5 8.2c1.4 2.6 2.5 4.4 4.4 6l-8.1 4.2zm-33.3-40.7 8.9 16.2 3.1-1.7c2.9-1.6 3.9-3.9 1.6-8.2l-2.9-5.2c-2.1-3.8-4.2-4.8-7-3.3l-3.7 2.2zm16.6-19.8 20.4-18.5 5.8 6.4-6.9 6.3 34.7 38.3-6.6 6-34.7-38.3-6.9 6.3-5.8-6.5zm-244-101.7 3.2 6.6 7.2 1-5.2 5.1 1.2 7.2-6.4-3.4-6.5 3.4 1.2-7.2-5.2-5.1 7.2-1zm327.1 0 3.2 6.6 7.2 1-5.2 5.1 1.2 7.2-6.4-3.4-6.5 3.4 1.2-7.2-5.2-5.1 7.2-1z"/><circle cx="300" cy="250" r="96.8" style="fill:#329625!important"/><path class="stT4_0211" d="M259.2 273.8h-38.8v-7.7l18.3-19.5c2.5-2.7 4.4-5.1 5.6-7.2 1.2-2 1.8-4 1.8-5.8 0-2.5-.6-4.5-1.9-5.9-1.3-1.4-3.1-2.2-5.4-2.2-2.5 0-4.5.9-6 2.6-1.5 1.8-2.2 4.1-2.2 6.9h-11.3c0-3.4.8-6.6 2.5-9.5 1.6-2.9 4-5.1 7-6.7 3-1.6 6.4-2.4 10.2-2.4 5.8 0 10.4 1.4 13.6 4.2 3.2 2.8 4.8 6.8 4.8 11.9 0 2.8-.7 5.7-2.2 8.6s-3.9 6.3-7.5 10.2l-12.9 13.6h24.4v8.9zm40.2-21.3h6.4v9.1h-6.4v12.3h-11.2v-12.3H265l-.5-7.1 23.6-37.3h11.4v35.3zm-23.8 0h12.5v-20l-.7 1.3-11.8 18.7zm40.2 26.1h-8.4l20.8-61.5h8.4l-20.8 61.5zm64.3-55.2-21.9 50.4h-11.9l21.9-47.6H340v-9.1h40v6.3z"/><path class="stT4_0210" d="M292.5 363.3h-.1c-5.1-.4-10.2-1-15.2-2.1-.7-.1-1.2-.8-1.2-1.5v-.3c.2-.8 1-1.3 1.8-1.2h.1c4.8 1 9.8 1.7 14.7 2 .4 0 .8.2 1 .5.3.3.4.7.4 1.1-.1.8-.7 1.5-1.5 1.5zm15.1-.1c-.8 0-1.4-.6-1.5-1.4v-.1c0-.8.6-1.4 1.4-1.5 5-.3 9.9-1 14.8-2 .8-.2 1.6.4 1.8 1.2.2.8-.3 1.6-1.2 1.8-5 1-10.1 1.7-15.2 2.1 0-.1 0-.1-.1-.1zm-44.7-6.1c-.2 0-.3 0-.5-.1-4.8-1.7-9.6-3.8-14.1-6.1-.5-.3-.8-.8-.8-1.3 0-.2 0-.5.2-.7.4-.7 1.3-1 2-.6h.1c4.4 2.3 9 4.3 13.6 5.9.8.3 1.2 1.1.9 1.9-.2.6-.8 1-1.4 1zm74.3 0c-.6 0-1.2-.4-1.4-1-.1-.2-.1-.3-.1-.5 0-.6.4-1.2 1-1.4 4.7-1.7 9.3-3.7 13.7-5.9.7-.4 1.6-.1 2 .6.2.4.2.8.1 1.1-.1.4-.4.7-.7.9-4.5 2.4-9.2 4.4-14 6.1-.3.1-.4.1-.6.1zM236 343.2c-.3 0-.6-.1-.9-.3-4.2-2.9-8.2-6.2-11.9-9.7-.3-.3-.5-.7-.5-1.1 0-.4.1-.8.4-1 .6-.6 1.5-.6 2.1-.1 3.6 3.4 7.5 6.6 11.6 9.4.7.5.8 1.4.4 2.1-.2.5-.7.7-1.2.7zm128 0c-.5 0-.9-.2-1.2-.6-.2-.3-.3-.6-.3-.9 0-.5.2-.9.6-1.2 4-2.9 7.9-6.1 11.6-9.4.6-.6 1.6-.5 2.1.1.6.6.5 1.5-.1 2.1-3.7 3.5-7.7 6.7-11.9 9.7-.2.1-.5.2-.8.2zm-150.1-20.6c-.5 0-.9-.2-1.2-.5-3.2-4-6.2-8.2-8.9-12.5-.1-.2-.2-.5-.2-.8 0-.5.3-1 .7-1.3.7-.4 1.6-.2 2.1.5 2.6 4.3 5.5 8.4 8.6 12.2.3.3.4.7.3 1.1 0 .4-.2.8-.5 1-.2.2-.5.3-.9.3zm172.2-.1c-.3 0-.7-.1-.9-.3-.4-.3-.6-.7-.6-1.2 0-.3.1-.7.3-1 3.1-3.9 6.1-8 8.6-12.2.4-.7 1.4-.9 2.1-.5.3.2.6.5.7.9.1.4 0 .8-.2 1.1a91.4 91.4 0 0 1-8.9 12.5c-.2.5-.6.7-1.1.7zm-187.9-25.7c-.6 0-1.1-.4-1.4-.9-2-4.7-3.8-9.6-5.1-14.5 0-.1-.1-.3-.1-.4 0-.7.5-1.3 1.1-1.4.8-.2 1.6.3 1.9 1 1.3 4.8 3 9.5 5 14.1.3.8 0 1.6-.8 2-.2.1-.4.1-.6.1zm203.6-.1c-.2 0-.4 0-.6-.1-.5-.2-.9-.8-.9-1.4 0-.2 0-.4.1-.6 2-4.6 3.7-9.3 5-14.1.2-.8 1.1-1.3 1.9-1 .8.2 1.3 1 1 1.8-1.4 4.9-3.1 9.8-5.1 14.5-.2.6-.8.9-1.4.9zm-211.8-29c-.7 0-1.4-.6-1.5-1.3-.7-5-1-10.2-1-15.3 0-.8.7-1.5 1.5-1.5s1.5.7 1.5 1.5c0 5 .3 10 1 14.9.1.4-.1.8-.3 1.1-.2.3-.6.5-1 .6h-.2zm220-.1h-.2c-.8-.1-1.3-.8-1.3-1.5v-.2c.7-4.9 1-9.9 1-14.9v-.2c0-.4.1-.8.4-1.1.3-.3.7-.4 1.1-.4.8 0 1.5.7 1.5 1.5v.2c0 5.1-.4 10.3-1 15.3-.1.7-.8 1.3-1.5 1.3zm-220-30.1h-.2c-.4-.1-.8-.3-1-.6-.2-.3-.4-.7-.3-1.1.7-5.1 1.7-10.1 3.1-15 .2-.8 1.1-1.3 1.9-1 .6.2 1.1.8 1.1 1.4 0 .1 0 .3-.1.4-1.3 4.8-2.3 9.7-3 14.6-.1.7-.7 1.3-1.5 1.3zm219.9-.3c-.8 0-1.4-.6-1.5-1.3-.7-4.9-1.7-9.9-3.1-14.6-.1-.4-.1-.8.1-1.1.2-.4.5-.6.9-.7.8-.2 1.6.3 1.9 1 1.4 4.9 2.4 10 3.1 15v.2c0 .8-.5 1.4-1.3 1.5h-.1zm-211.8-28.8c-.2 0-.4 0-.6-.1-.4-.2-.7-.5-.8-.8-.1-.4-.1-.8 0-1.1 2-4.7 4.4-9.3 7.1-13.6.4-.7 1.4-.9 2.1-.5.5.3.7.8.7 1.3 0 .3-.1.5-.2.8-2.6 4.3-4.9 8.7-6.9 13.3-.2.3-.8.7-1.4.7zm203.7-.3c-.6 0-1.1-.3-1.4-.9-2-4.5-4.3-9-6.9-13.2-.4-.7-.2-1.6.5-2 .7-.4 1.6-.2 2.1.5 2.7 4.3 5 8.9 7.1 13.6.1.2.1.4.1.6 0 .6-.4 1.1-.9 1.4-.2-.1-.4 0-.6 0zm-188-25.6c-.3 0-.7-.1-.9-.3-.3-.3-.5-.6-.5-1s.1-.8.3-1.1c3.2-4 6.7-7.7 10.5-11.2.6-.5 1.6-.5 2.1.1.3.3.4.6.4 1s-.2.8-.5 1.1c-3.6 3.4-7.1 7.1-10.2 10.9-.3.3-.7.5-1.2.5zm172.2-.2c-.5 0-.9-.2-1.2-.6-3.1-3.8-6.6-7.5-10.2-10.9-.3-.3-.5-.6-.5-1s.1-.8.4-1.1c.5-.6 1.5-.6 2.1-.1 3.7 3.5 7.3 7.3 10.5 11.2.2.3.3.6.3 1 0 .5-.2.9-.5 1.1-.2.3-.6.4-.9.4zm-150.1-20.4c-.5 0-1-.2-1.2-.6-.2-.3-.3-.7-.3-1.1.1-.4.3-.7.6-1 4.2-3 8.6-5.6 13.1-8 .7-.4 1.7-.1 2 .6.1.2.2.4.2.7 0 .6-.3 1.1-.8 1.3-4.4 2.3-8.7 4.9-12.8 7.8-.2.2-.5.3-.8.3zm128-.2c-.3 0-.6-.1-.9-.3-4.1-2.9-8.4-5.5-12.8-7.8-.4-.2-.6-.5-.7-.9-.1-.4-.1-.8.1-1.1.4-.7 1.3-1 2-.6 4.5 2.4 8.9 5 13.1 8 .4.3.6.7.6 1.2 0 .3-.1.6-.3.9-.2.4-.6.6-1.1.6zm-101.2-13.8c-.6 0-1.2-.4-1.4-1-.1-.4-.1-.8.1-1.1.2-.4.5-.6.9-.8 4.8-1.7 9.8-3.1 14.8-4.2.8-.2 1.6.4 1.8 1.2v.3c0 .7-.5 1.3-1.2 1.5-4.9 1-9.7 2.4-14.4 4-.3.1-.5.1-.6.1zm74.3-.1c-.2 0-.3 0-.5-.1h-.1c-4.7-1.6-9.5-3-14.4-4-.4-.1-.7-.3-1-.6-.2-.3-.3-.7-.2-1.1.2-.8 1-1.3 1.8-1.2 5 1 10 2.4 14.8 4.1.6.2 1 .8 1 1.4 0 .2 0 .3-.1.5-.1.6-.6 1-1.3 1zm-44.7-6c-.8 0-1.4-.6-1.5-1.4 0-.4.1-.8.4-1.1.3-.3.6-.5 1-.5 5.1-.4 10.2-.4 15.3 0 .8 0 1.4.7 1.4 1.5v.1c-.1.8-.8 1.5-1.6 1.4-4.9-.3-10-.3-15 0z"/></svg>