<svg width="90" xmlns="http://www.w3.org/2000/svg" viewBox="-50 0 600 500" style="height:auto!important;enable-background:new 0 0 500 500"><style>.stT4_0070{fill:#494949!important}</style><path class="stT4_0070" d="m248.9 492.9-2.1-1.1c-4.3-2.2-5.8-3-6.5-3.4C149 437.5 97.9 393.8 74.7 346.8c-22.3-45.3-17.6-88.8-2.6-144.4C84.8 116.7 60.1 72 59.8 71.6l-11.2-19 20.3-8.8C125.4 19.4 185.5 7.1 247.4 7.1h7.2c61.9 0 121.9 12.3 178.4 36.7l20.5 8.8-11.5 19c-.9 1.7-24.8 46.3-12.2 130.8 15 55.5 19.8 99.1-2.6 144.4-23.2 47-74.2 90.7-165.5 141.6-.4.3-1.2.8-2.9 1.7-3.5 2-4.8 2.8-7.5 2.8h-2.4z"/><path d="M245.3 479.8c-89.5-49.9-139.4-92.3-161.7-137.4-21-42.5-16.3-84.3-1.7-137.9C95.5 113.6 68.8 67 68.5 66.6L63 57.3l9.9-4.3c55.2-23.8 113.9-35.9 174.5-35.9h7.2c60.5 0 119.2 12.1 174.5 35.9l10 4.3-5.6 9.3c-.3.4-27 47-13.4 137.9 14.5 53.6 19.2 95.4-1.7 137.9-22.3 45.1-72.1 87.5-161.7 137.4-.5.4-5.2 3.1-5.3 3.1-.1 0-5.5-2.7-6.1-3.1z" style="fill:#329625!important"/><path d="M425.2 61.7C362.9 34.8 303 26.2 250.9 26.6c-52-.4-111.9 8.2-174.3 35.1 0 0 29.2 48.3 14.6 144.8-27 99.3-23.6 163.5 159.3 265.4 0 0 .2.3.4.2.1.1.4-.2.4-.2 183-101.9 186.3-166.2 159.4-265.4-14.6-96.5 14.5-144.8 14.5-144.8z" style="fill:#fff!important"/><path class="stT4_0070" d="m248.2 386.7 5.9 11.9 13.2 1.9-9.6 9.4L260 423l-11.8-6.2-11.9 6.2 2.3-13.1-9.6-9.4 13.3-1.9zm-43.3-2.1 3.7 7.7 8.5 1.2-6.1 5.9 1.4 8.4-7.5-3.9-7.6 3.9 1.5-8.4-6.1-5.9 8.4-1.2zm86.6-2 3.7 7.6 8.5 1.3-6.1 5.9 1.4 8.4-7.5-4-7.6 4 1.5-8.4-6.1-5.9 8.4-1.3zm-135.4-314c9.2 0 11.2-4.4 13-9.5h8v75.5h-11.9V77H156v-8.4zm39.7 8.6c0-12.1 6.4-19 18-19s18 6.9 18 19v39.2c0 12.1-6.4 19-18 19s-18-6.9-18-19V77.2zm11.9 40c0 5.4 2.4 7.4 6.1 7.4 3.8 0 6.1-2 6.1-7.4V76.5c0-5.4-2.4-7.4-6.1-7.4-3.8 0-6.1 2-6.1 7.4v40.7zm36.2-40c0-12.1 6.4-19 18-19s18 6.9 18 19v39.2c0 12.1-6.4 19-18 19s-18-6.9-18-19V77.2zm11.8 40c0 5.4 2.4 7.4 6.1 7.4s6.1-2 6.1-7.4V76.5c0-5.4-2.4-7.4-6.1-7.4s-6.1 2-6.1 7.4v40.7zm36.6-46.6c0-7.8 4-12.1 11.4-12.1s11.4 4.3 11.4 12.1v24.8c0 7.8-4 12.1-11.4 12.1s-11.4-4.3-11.4-12.1V70.6zm7.5 25.4c0 3.3 1.4 4.7 3.9 4.7 2.4 0 3.9-1.4 3.9-4.7V70.1c0-3.3-1.5-4.7-3.9-4.7-2.5 0-3.9 1.4-3.9 4.7V96zm33.7-36.9h7l-29.7 75.5h-7l29.7-75.5zm-3.8 39.1c0-7.8 4-12.1 11.4-12.1s11.4 4.3 11.4 12.1V123c0 7.8-4 12.1-11.4 12.1s-11.4-4.3-11.4-12.1V98.2zm7.5 25.4c0 3.3 1.4 4.7 3.9 4.7 2.4 0 3.9-1.4 3.9-4.7V97.7c0-3.3-1.5-4.7-3.9-4.7-2.5 0-3.9 1.4-3.9 4.7v25.9zm-173.8 29.7c8.6 0 13 5.1 13 14.1v1.8H168v-2.3c0-4-1.6-5.5-4.4-5.5s-4.4 1.5-4.4 5.5c0 4.1 1.8 7.1 7.5 12.2 7.4 6.5 9.7 11.1 9.7 17.5 0 9-4.5 14.1-13.1 14.1-8.7 0-13.1-5.1-13.1-14.1v-3.4h8.3v4c0 4 1.8 5.4 4.6 5.4s4.6-1.4 4.6-5.4c0-4.1-1.8-7.1-7.5-12.2-7.4-6.5-9.7-11.1-9.7-17.5-.1-9.1 4.3-14.2 12.9-14.2zm30.9 24.3h12.1v8h-12.1V202h15.2v8h-24v-56h24v8h-15.2v15.6zm50.2 11.5v7.4c0 9-4.5 14.1-13.1 14.1s-13.1-5.1-13.1-14.1v-29.2c0-9 4.5-14.1 13.1-14.1s13.1 5.1 13.1 14.1v5.4h-8.3v-6c0-4-1.8-5.5-4.6-5.5s-4.6 1.5-4.6 5.5V197c0 4 1.8 5.4 4.6 5.4s4.6-1.4 4.6-5.4v-8h8.3zm17.8-35.1v43.3c0 4 1.8 5.4 4.6 5.4s4.6-1.4 4.6-5.4V154h8.3v42.7c0 9-4.5 14.1-13.1 14.1-8.7 0-13.1-5.1-13.1-14.1V154h8.7zm45.9 56c-.5-1.4-.8-2.3-.8-6.9v-8.8c0-5.2-1.8-7.1-5.8-7.1h-3V210h-8.8v-56h13.3c9.1 0 13.1 4.2 13.1 12.9v4.4c0 5.8-1.8 9.5-5.8 11.3v.2c4.4 1.8 5.8 6 5.8 11.9v8.7c0 2.7.1 4.7 1 6.8h-9zm-9.6-48v17.2h3.4c3.3 0 5.3-1.4 5.3-5.9v-5.5c0-4-1.4-5.8-4.5-5.8h-4.2zm36.2 15.6h12.1v8h-12.1V202H350v8h-24v-56h24v8h-15.2v15.6zM152 244.5c0-9.5 5-15 14.2-15s14.2 5.4 14.2 15v31c0 9.5-5 15-14.2 15s-14.2-5.4-14.2-15v-31zm9.4 31.5c0 4.3 1.9 5.9 4.9 5.9s4.9-1.6 4.9-5.9v-32.2c0-4.3-1.9-5.9-4.9-5.9s-4.9 1.6-4.9 5.9V276zm37.9-29.4h-.2v43.2h-8.4v-59.6h11.7l9.5 35.7h.2v-35.7h8.3v59.6h-9.6l-11.5-43.2zm32.1-16.4h9.4v51.1h15.4v8.5h-24.8v-59.6zm33.1 0h9.4v59.6h-9.4v-59.6zm29 16.4h-.2v43.2h-8.4v-59.6h11.8l9.5 35.7h.2v-35.7h8.3v59.6h-9.6l-11.6-43.2zm41.4 8.7h12.9v8.5h-12.9v17.5h16.2v8.5h-25.5v-59.6h25.5v8.5h-16.2v16.6zM159.8 308c6.7 0 10.1 4 10.1 11v1.4h-6.5v-1.8c0-3.1-1.3-4.3-3.4-4.3s-3.4 1.2-3.4 4.3c0 3.2 1.4 5.6 5.9 9.5 5.8 5.1 7.6 8.7 7.6 13.7 0 7-3.5 11-10.3 11s-10.3-4-10.3-11V339h6.5v3.1c0 3.1 1.4 4.3 3.6 4.3s3.6-1.1 3.6-4.3c0-3.2-1.4-5.6-5.9-9.5-5.8-5.1-7.6-8.7-7.6-13.7 0-6.9 3.4-10.9 10.1-10.9zm24.1 44.2H177v-43.8h6.9v18.8h7.8v-18.8h7v43.8h-7v-18.8h-7.8v18.8zm22.4-33.2c0-7 3.7-11 10.4-11s10.4 4 10.4 11v22.8c0 7-3.7 11-10.4 11s-10.4-4-10.4-11V319zm6.9 23.2c0 3.1 1.4 4.3 3.6 4.3s3.6-1.2 3.6-4.3v-23.6c0-3.1-1.4-4.3-3.6-4.3s-3.6 1.2-3.6 4.3v23.6zm41.9-22.9v5.7c0 7-3.4 10.8-10.3 10.8h-3.3v16.4h-6.9v-43.8h10.1c7.1.1 10.4 3.9 10.4 10.9zm-13.5-4.6v14.8h3.3c2.2 0 3.4-1 3.4-4.1v-6.6c0-3.1-1.2-4.1-3.4-4.1h-3.3zm40.2 4.6v5.7c0 7-3.4 10.8-10.3 10.8h-3.3v16.4h-6.9v-43.8h10.1c7 .1 10.4 3.9 10.4 10.9zm-13.5-4.6v14.8h3.3c2.2 0 3.4-1 3.4-4.1v-6.6c0-3.1-1.2-4.1-3.4-4.1h-3.3zm19.8-6.2h6.9v43.8h-6.9v-43.8zm21.3 12h-.1v31.7h-6.2v-43.8h8.6l6.9 26.2h.1v-26.2h6.1v43.8h-7.1l-8.3-31.7zm33.8 7.3h9.6v13.9c0 7-3.5 11-10.3 11s-10.3-4-10.3-11V319c0-7 3.5-11 10.3-11s10.3 4 10.3 11v4.3h-6.5v-4.7c0-3.1-1.4-4.3-3.6-4.3s-3.6 1.2-3.6 4.3v23.6c0 3.1 1.4 4.3 3.6 4.3s3.6-1.1 3.6-4.3v-8.1h-3.1v-6.3z"/></svg>